<svg xmlns="http://www.w3.org/2000/svg" xmlns:xlink="http://www.w3.org/1999/xlink" width="1046.717" height="962.875" viewBox="0 0 1046.717 962.875">
  <defs>
    <clipPath id="clip-path">
      <path id="path396" d="M151.108-204.734a92.5,92.5,0,0,1-12.9-.905l-.338-.049A92.574,92.574,0,0,1,89.5-228.4a92.553,92.553,0,0,1-27.158-44q-.113-.412-.221-.823a92.367,92.367,0,0,1-2.413-12.63l126.97,73.9a91.444,91.444,0,0,1-12.338,4.208,92.017,92.017,0,0,1-17.159,2.805.17.17,0,0,1-.035,0h-.005q-3,.2-6.037.2" transform="translate(-59.711 285.851)"/>
    </clipPath>
  </defs>
  <g id="g8" transform="translate(-37.931 603.033)">
    <g id="g10" transform="translate(37.931 -603.033)">
      <path id="path14" d="M982.262,186.84c-53.249-40.455-144.32-140.846-24.39-298.439C1106.18-306.483,928.567-386.437,758.321-378.09c-64.167,3.143-132.106-32.978-202.007-69.1-79.3-40.978-161.139-81.959-242.866-65.6C109.357-471.945,241.875-296.19,103.494-201.5c-118.015,80.756-67.348,326.812,86.249,388.34h792.52" transform="translate(-37.56 668.731)" fill="#dfdbf1"/>
      <path id="path16" d="M95.63-369.989a14.226,14.226,0,0,1-20.074.983,14.226,14.226,0,0,1-.984-20.074,14.23,14.23,0,0,1,20.075-.985A14.231,14.231,0,0,1,95.63-369.989Zm38.559-3.274-.762-15.487-14.509.713a34.849,34.849,0,0,0-4.508-10.357l9.5-10.486-11.488-10.411-9.1,10.034a34.738,34.738,0,0,0-13.069-4.761l-.71-14.513-15.489.76.735,14.956a34.491,34.491,0,0,0-8.552,3.978l-10.485-9.508L45.343-406.859l10.035,9.1a34.714,34.714,0,0,0-4.761,13.068l-12.686.622.759,15.487,13.132-.645A34.561,34.561,0,0,0,57.3-358.492l-9.1,10.036,11.488,10.414L69.2-348.527a34.681,34.681,0,0,0,12.584,3.666l.714,14.6,15.486-.76-.775-15.827a34.492,34.492,0,0,0,8.934-4.89l10.036,9.1,10.415-11.488-10.485-9.5a34.621,34.621,0,0,0,3.12-8.9l14.958-.732" transform="translate(-37.931 735.486)" fill="#dfdbf1"/>
      <path id="path18" d="M623.428-174.29a14.224,14.224,0,0,1-20.072.985,14.23,14.23,0,0,1-.985-20.076,14.229,14.229,0,0,1,20.074-.985,14.225,14.225,0,0,1,.983,20.076Zm38.56-3.274-.762-15.487-14.511.713a34.774,34.774,0,0,0-4.508-10.355l9.5-10.486-11.488-10.416-9.1,10.036a34.738,34.738,0,0,0-13.071-4.761l-.708-14.513-15.489.76.736,14.959a34.6,34.6,0,0,0-8.556,3.973l-10.484-9.5-10.413,11.485,10.033,9.1a34.744,34.744,0,0,0-4.761,13.068l-12.684.622.758,15.489,13.132-.647a34.578,34.578,0,0,0,5.484,10.737L576-152.755l11.488,10.411L597-152.827a34.716,34.716,0,0,0,12.583,3.668l.715,14.6,15.484-.76-.774-15.827a34.5,34.5,0,0,0,8.936-4.89l10.034,9.1,10.416-11.485-10.484-9.506a34.6,34.6,0,0,0,3.119-8.9l14.959-.732" transform="translate(362.689 884.028)" fill="#dfdbf1"/>
      <path id="path20" d="M449.1-555.919a10.447,10.447,0,0,1-14.743.722,10.447,10.447,0,0,1-.722-14.743,10.449,10.449,0,0,1,14.743-.722A10.452,10.452,0,0,1,449.1-555.919Zm28.318-2.4-.56-11.375-10.657.525a25.56,25.56,0,0,0-3.309-7.609l6.98-7.7-8.439-7.648-6.68,7.369a25.463,25.463,0,0,0-9.6-3.5l-.523-10.66-11.375.561.542,10.986a25.218,25.218,0,0,0-6.283,2.918l-7.7-6.982L412.163-583l7.371,6.682a25.491,25.491,0,0,0-3.5,9.6l-9.316.457.556,11.375,9.644-.476a25.483,25.483,0,0,0,4.025,7.888l-6.68,7.369,8.434,7.646,6.984-7.7a25.487,25.487,0,0,0,9.241,2.693l.525,10.723,11.375-.561-.57-11.624a25.289,25.289,0,0,0,6.56-3.591l7.372,6.682,7.648-8.436-7.7-6.98a25.272,25.272,0,0,0,2.294-6.539l10.986-.535" transform="translate(241.995 606.159)" fill="#dfdbf1"/>
      <path id="path22" d="M1035.056-99.577c0,17.562-217.989,31.8-486.89,31.8S61.274-82.015,61.274-99.577s217.987-31.8,486.892-31.8,486.89,14.236,486.89,31.8" transform="translate(-20.212 961.04)" fill="#dfdbf1"/>
      <path id="path24" d="M625.361-366.007a8.731,8.731,0,0,0,8.72-8.722,8.73,8.73,0,0,0-8.72-8.72,8.731,8.731,0,0,0-8.723,8.72A8.731,8.731,0,0,0,625.361-366.007Zm0-21.43a12.723,12.723,0,0,1,12.707,12.707,12.724,12.724,0,0,1-12.707,12.71,12.726,12.726,0,0,1-12.71-12.71,12.725,12.725,0,0,1,12.71-12.707" transform="translate(398.303 766.679)" fill="#444bf7"/>
      <path id="path26" d="M599.353-391.352a8.731,8.731,0,0,0,8.722-8.72,8.731,8.731,0,0,0-8.722-8.722,8.73,8.73,0,0,0-8.718,8.722A8.73,8.73,0,0,0,599.353-391.352Zm0-21.43a12.723,12.723,0,0,1,12.709,12.71,12.722,12.722,0,0,1-12.709,12.707,12.723,12.723,0,0,1-12.707-12.707,12.724,12.724,0,0,1,12.707-12.71" transform="translate(378.563 747.441)" fill="#f7941d"/>
      <path id="path28" d="M585.8-436.258a1.993,1.993,0,0,1,1.994,1.994v8.79a1.992,1.992,0,0,1-1.994,1.994,1.993,1.993,0,0,1-1.994-1.994v-8.79a2,2,0,0,1,1.994-1.994" transform="translate(376.411 729.622)" fill="#444bf7"/>
      <path id="path30" d="M585.8-445a1.992,1.992,0,0,1,1.994,1.994v8.791a1.993,1.993,0,0,1-1.994,1.994,2,2,0,0,1-1.994-1.994v-8.791A1.993,1.993,0,0,1,585.8-445" transform="translate(376.411 722.984)" fill="#444bf7"/>
      <path id="path32" d="M578.789-438.131h7.9a1.993,1.993,0,0,1,1.994,1.991,2,2,0,0,1-1.994,2h-7.9a1.993,1.993,0,0,1-1.991-2,1.991,1.991,0,0,1,1.991-1.991" transform="translate(371.088 728.2)" fill="#444bf7"/>
      <path id="path34" d="M588.332-438.131h7.895a1.993,1.993,0,0,1,1.994,1.991,2,2,0,0,1-1.994,2h-7.895a2,2,0,0,1-2-2,1.993,1.993,0,0,1,2-1.991" transform="translate(378.328 728.2)" fill="#444bf7"/>
      <path id="path36" d="M625.695-408.254a1.993,1.993,0,0,1,2,1.991v8.793a1.993,1.993,0,0,1-2,1.991,1.993,1.993,0,0,1-1.994-1.991v-8.793a1.993,1.993,0,0,1,1.994-1.991" transform="translate(406.69 750.878)" fill="#f7941d"/>
      <path id="path38" d="M625.695-417a1.993,1.993,0,0,1,2,1.991v8.79a1.994,1.994,0,0,1-2,1.994,1.993,1.993,0,0,1-1.994-1.994v-8.79A1.993,1.993,0,0,1,625.695-417" transform="translate(406.69 744.24)" fill="#f7941d"/>
      <path id="path40" d="M618.679-410.128h7.9a1.993,1.993,0,0,1,1.994,1.994,2,2,0,0,1-1.994,1.994h-7.9a1.993,1.993,0,0,1-1.991-1.994,1.991,1.991,0,0,1,1.991-1.994" transform="translate(401.366 749.455)" fill="#f7941d"/>
      <path id="path42" d="M628.219-410.128h7.9a1.993,1.993,0,0,1,1.991,1.994,1.994,1.994,0,0,1-1.991,1.994h-7.9a1.993,1.993,0,0,1-1.991-1.994,1.991,1.991,0,0,1,1.991-1.994" transform="translate(408.608 749.455)" fill="#f7941d"/>
      <path id="path44" d="M62.053-455.241a8.731,8.731,0,0,0,8.722,8.72,8.73,8.73,0,0,0,8.721-8.72,8.733,8.733,0,0,0-8.721-8.722A8.733,8.733,0,0,0,62.053-455.241Zm21.43,0a12.723,12.723,0,0,1-12.708,12.707,12.723,12.723,0,0,1-12.708-12.707,12.721,12.721,0,0,1,12.708-12.707,12.721,12.721,0,0,1,12.708,12.707" transform="translate(-22.646 705.568)" fill="#444bf7"/>
      <path id="path46" d="M88.365-479.1a8.733,8.733,0,0,0,8.721,8.722,8.732,8.732,0,0,0,8.721-8.722,8.731,8.731,0,0,0-8.721-8.72A8.731,8.731,0,0,0,88.365-479.1Zm21.43,0A12.724,12.724,0,0,1,97.086-466.4,12.724,12.724,0,0,1,84.378-479.1a12.723,12.723,0,0,1,12.708-12.707A12.723,12.723,0,0,1,109.795-479.1" transform="translate(-2.675 687.454)" fill="#f7941d"/>
      <path id="path48" d="M106.647-449.657a1.993,1.993,0,0,1-1.994,1.994h-8.79a1.992,1.992,0,0,1-1.994-1.994,1.993,1.993,0,0,1,1.994-1.993h8.79a2,2,0,0,1,1.994,1.993" transform="translate(4.529 717.938)" fill="#444bf7"/>
      <path id="path50" d="M115.393-449.657a1.994,1.994,0,0,1-1.995,1.994h-8.791a1.992,1.992,0,0,1-1.993-1.994,1.994,1.994,0,0,1,1.993-1.993H113.4a2,2,0,0,1,1.995,1.993" transform="translate(11.167 717.938)" fill="#444bf7"/>
      <path id="path52" d="M104.727-456.672v7.9a1.992,1.992,0,0,1-1.993,1.994,1.992,1.992,0,0,1-1.994-1.994v-7.9a1.993,1.993,0,0,1,1.994-1.994,1.994,1.994,0,0,1,1.993,1.994" transform="translate(9.745 712.613)" fill="#444bf7"/>
      <path id="path54" d="M104.727-447.132v7.9a1.992,1.992,0,0,1-1.993,1.991,1.991,1.991,0,0,1-1.994-1.991v-7.9a1.993,1.993,0,0,1,1.994-1.994,1.994,1.994,0,0,1,1.993,1.994" transform="translate(9.745 719.855)" fill="#444bf7"/>
      <path id="path56" d="M53.727-488.685a1.994,1.994,0,0,1-1.993,1.994H42.943a1.994,1.994,0,0,1-1.995-1.994,1.994,1.994,0,0,1,1.995-1.994h8.791a1.994,1.994,0,0,1,1.993,1.994" transform="translate(-35.64 688.314)" fill="#f7941d"/>
      <path id="path58" d="M62.472-488.685a2,2,0,0,1-1.994,1.994h-8.79a2,2,0,0,1-1.994-1.994,2,2,0,0,1,1.994-1.994h8.79a2,2,0,0,1,1.994,1.994" transform="translate(-29.001 688.314)" fill="#f7941d"/>
      <path id="path60" d="M51.807-495.7v7.9a1.993,1.993,0,0,1-1.993,1.994,1.994,1.994,0,0,1-1.994-1.994v-7.9a1.993,1.993,0,0,1,1.994-1.994,1.992,1.992,0,0,1,1.993,1.994" transform="translate(-30.424 682.99)" fill="#f7941d"/>
      <path id="path62" d="M51.807-486.16v7.9a1.993,1.993,0,0,1-1.993,1.994,1.994,1.994,0,0,1-1.994-1.994v-7.9a1.994,1.994,0,0,1,1.994-1.994,1.993,1.993,0,0,1,1.993,1.994" transform="translate(-30.424 690.231)" fill="#f7941d"/>
      <path id="path64" d="M154.891-352.175H115.344a8.783,8.783,0,0,1-8.784-8.783v-39.548a8.783,8.783,0,0,1,8.784-8.783h39.546a8.783,8.783,0,0,1,8.786,8.783v39.548a8.783,8.783,0,0,1-8.786,8.783" transform="translate(14.162 750.091)" fill="#f7941d"/>
      <path id="path66" d="M136.615-397.219a8.25,8.25,0,0,0-11.647.467,8.252,8.252,0,0,0,.466,11.647,8.253,8.253,0,0,0,11.648-.467A8.251,8.251,0,0,0,136.615-397.219Zm-13.933,15.095a12.315,12.315,0,0,1-.7-17.382,12.316,12.316,0,0,1,17.383-.7,12.319,12.319,0,0,1,.7,17.384,12.314,12.314,0,0,1-17.382.694" transform="translate(23.399 754.518)" fill="#fff"/>
      <path id="path68" d="M113.534-375.087a2.027,2.027,0,0,1-.115-2.866l13.589-14.724a2.029,2.029,0,0,1,2.867-.115,2.031,2.031,0,0,1,.115,2.868L116.4-375.2a2.028,2.028,0,0,1-2.867.115" transform="translate(18.959 762.205)" fill="#fff"/>
      <path id="path70" d="M261.576-534.814H222.028a8.785,8.785,0,0,1-8.783-8.786v-39.548a8.784,8.784,0,0,1,8.783-8.783h39.548a8.785,8.785,0,0,1,8.786,8.783V-543.6a8.785,8.785,0,0,1-8.786,8.786" transform="translate(95.139 611.461)" fill="#f7941d"/>
      <path id="path72" d="M236.494-559.9v8.305a16.964,16.964,0,0,1-6.485-8.305Zm-8.026,0a20.046,20.046,0,0,0,3.115,5.713,18.2,18.2,0,0,0,2.212,2.35,16.626,16.626,0,0,1-10.953-8.063Zm-7.7-9.163a16.292,16.292,0,0,1,1.715-6.281h5.8a22.149,22.149,0,0,0-1.156,6.281Zm15.726,1.44v6.283h-6.98a23.661,23.661,0,0,1-.957-6.283ZM223.3-576.784a16.538,16.538,0,0,1,10.254-7.247,24.114,24.114,0,0,0-2.315,2.843,23.53,23.53,0,0,0-2.416,4.4Zm13.193,1.44v6.281h-7.927a20.667,20.667,0,0,1,1.243-6.281Zm-6.1-1.44a21.942,21.942,0,0,1,2.005-3.548,21.355,21.355,0,0,1,3.635-4.069l.457-.023v7.641Zm-2.383,15.444H222.12a16.333,16.333,0,0,1-1.384-6.283h6.382A25.377,25.377,0,0,0,228.014-561.34Zm25.68-6.283a16.29,16.29,0,0,1-1.384,6.283h-5.727a25.377,25.377,0,0,0,.9-6.283Zm-6.22-1.44a22.145,22.145,0,0,0-1.156-6.281h5.634a16.327,16.327,0,0,1,1.712,6.281Zm-9.539,0v-6.281h6.851a20.589,20.589,0,0,1,1.245,6.281Zm7.838-7.721a23.526,23.526,0,0,0-2.416-4.4,24.072,24.072,0,0,0-2.268-2.8,16.563,16.563,0,0,1,10.038,7.2Zm-7.838,0v-7.641c.213.009.429.021.643.037a22.417,22.417,0,0,1,5.62,7.6Zm6.656,16.884a18.487,18.487,0,0,1-2.674,4.778,14.994,14.994,0,0,1-3.982,3.628V-559.9Zm-1.576,5.713a20.045,20.045,0,0,0,3.115-5.713h5.46a16.413,16.413,0,0,1-10.732,8.016,18.543,18.543,0,0,0,2.158-2.3Zm-5.08-7.153v-6.283h8.106a23.75,23.75,0,0,1-.959,6.283Zm-.72-24.547a17.947,17.947,0,0,0-17.926,17.926,17.947,17.947,0,0,0,17.926,17.926,17.947,17.947,0,0,0,17.926-17.926,17.947,17.947,0,0,0-17.926-17.926" transform="translate(99.727 616.048)" fill="#fff"/>
      <path id="path74" d="M600.147-436.874H560.6a8.786,8.786,0,0,1-8.786-8.783v-39.55a8.786,8.786,0,0,1,8.786-8.783h39.548a8.786,8.786,0,0,1,8.786,8.783v39.55a8.786,8.786,0,0,1-8.786,8.783" transform="translate(352.124 685.8)" fill="#f7941d"/>
      <path id="path76" d="M583.312-461.763H561.317a2.471,2.471,0,0,1-2.474-2.472v-17.4a2.471,2.471,0,0,1,2.474-2.472h21.995a2.473,2.473,0,0,1,2.472,2.472v17.4a2.472,2.472,0,0,1-2.472,2.472" transform="translate(357.46 693.304)" fill="#fff"/>
      <path id="path78" d="M583.217-480.453v11.347a1.219,1.219,0,0,1-1.745,1.1l-5.6-2.674a1.218,1.218,0,0,1-.694-1.1v-6a1.215,1.215,0,0,1,.694-1.1l5.6-2.676a1.219,1.219,0,0,1,1.745,1.1" transform="translate(369.857 695.149)" fill="#fff"/>
      <path id="path80" d="M346.891-579.555a1.6,1.6,0,0,1-.807,0c-2.913-.762-4.6-1.072-4.616-1.074a1.624,1.624,0,0,1-1.309-1.886,1.625,1.625,0,0,1,1.886-1.309c.073.014,1.811.331,4.862,1.128a1.621,1.621,0,0,1,1.156,1.982,1.619,1.619,0,0,1-1.173,1.163" transform="translate(191.452 617.59)" fill="#dfdbf1"/>
      <path id="path82" d="M397.656-538.092c1.51,2.756,2.964,5.612,4.325,8.492a1.626,1.626,0,0,0,1.867.882l.3-.105a1.623,1.623,0,0,0,.774-2.162c-1.386-2.939-2.873-5.854-4.416-8.668a1.621,1.621,0,0,0-2.2-.643,1.621,1.621,0,0,0-.643,2.2" transform="translate(234.961 650.501)" fill="#dfdbf1"/>
      <path id="path84" d="M402.247-528.371c1.17,2.913,2.284,5.924,3.309,8.95a1.624,1.624,0,0,0,1.935,1.055l.124-.037a1.624,1.624,0,0,0,1.016-2.057c-1.044-3.084-2.179-6.152-3.37-9.121a1.623,1.623,0,0,0-2.111-.9,1.621,1.621,0,0,0-.9,2.108" transform="translate(238.51 658.014)" fill="#dfdbf1"/>
      <path id="path86" d="M411.516-496.817a1.622,1.622,0,0,0,1.208-1.78c-.415-3.23-.9-6.462-1.454-9.6a1.621,1.621,0,0,0-1.879-1.318,1.612,1.612,0,0,0-1.316,1.876c.539,3.1,1.02,6.276,1.428,9.459a1.627,1.627,0,0,0,1.818,1.4l.195-.038" transform="translate(243.003 673.996)" fill="#dfdbf1"/>
      <path id="path88" d="M406.827-520.169a1.623,1.623,0,0,0-1.126,2c.4,1.424.781,2.866,1.14,4.285.415,1.639.816,3.314,1.192,4.979a1.622,1.622,0,0,0,1.94,1.227l.042-.009a1.622,1.622,0,0,0,1.184-1.928c-.382-1.7-.788-3.4-1.21-5.066-.366-1.442-.755-2.911-1.161-4.362a1.622,1.622,0,0,0-1.961-1.135l-.04.009" transform="translate(241.174 665.885)" fill="#dfdbf1"/>
      <path id="path90" d="M397.255-539.282a1.621,1.621,0,0,0,1.771.706l.469-.2a1.618,1.618,0,0,0,.5-2.237c-1.729-2.737-3.565-5.451-5.458-8.063a1.626,1.626,0,0,0-2.268-.361,1.621,1.621,0,0,0-.361,2.266c1.853,2.556,3.652,5.211,5.343,7.892" transform="translate(230.519 643.478)" fill="#dfdbf1"/>
      <path id="path92" d="M349.168-578.48c2.962,1.013,5.964,2.148,8.931,3.37a1.606,1.606,0,0,0,1.018.075,1.614,1.614,0,0,0,1.1-.954,1.622,1.622,0,0,0-.88-2.12c-3.028-1.25-6.1-2.409-9.119-3.443a1.628,1.628,0,0,0-2.062,1.013,1.622,1.622,0,0,0,1.011,2.059" transform="translate(197.476 619.273)" fill="#dfdbf1"/>
      <path id="path94" d="M367.59-569.97a1.641,1.641,0,0,0,1.192.157,1.615,1.615,0,0,0,1.018-.783,1.621,1.621,0,0,0-.626-2.207c-2.824-1.576-5.73-3.089-8.64-4.5a1.622,1.622,0,0,0-2.165.755,1.621,1.621,0,0,0,.753,2.167c2.854,1.379,5.7,2.861,8.469,4.407" transform="translate(205.169 622.443)" fill="#dfdbf1"/>
      <path id="path96" d="M384.382-556.5a1.625,1.625,0,0,0,1.51.387,1.619,1.619,0,0,0,.786-.464,1.62,1.62,0,0,0-.075-2.291c-2.355-2.207-4.817-4.369-7.315-6.431a1.618,1.618,0,0,0-2.284.218,1.623,1.623,0,0,0,.22,2.284c2.446,2.019,4.853,4.137,7.158,6.3" transform="translate(219.156 631.39)" fill="#dfdbf1"/>
      <path id="path98" d="M376.408-563.752a1.614,1.614,0,0,0,1.353.26,1.624,1.624,0,0,0,.915-.617,1.624,1.624,0,0,0-.361-2.268c-2.6-1.9-5.308-3.738-8.045-5.486a1.623,1.623,0,0,0-2.242.493,1.623,1.623,0,0,0,.495,2.242c2.681,1.712,5.333,3.52,7.885,5.375" transform="translate(212.431 626.498)" fill="#dfdbf1"/>
      <path id="path100" d="M391.374-548.305a1.617,1.617,0,0,0,1.649.539,1.609,1.609,0,0,0,.636-.324,1.624,1.624,0,0,0,.216-2.285c-2.062-2.488-4.229-4.949-6.443-7.3a1.623,1.623,0,0,0-2.294-.073,1.623,1.623,0,0,0-.073,2.294c2.169,2.306,4.29,4.712,6.309,7.149" transform="translate(225.223 637.073)" fill="#dfdbf1"/>
      <path id="path102" d="M378.766-575.984l3.279-27.049L296.017-589.89Z" transform="translate(157.966 603.033)" fill="#444bf7"/>
      <path id="path104" d="M296.015-595.562l79.475,20.794.209.059,3.992,4.874-.924-11.818-82.752-13.908" transform="translate(157.965 608.704)" fill="#463c9d"/>
      <path id="path106" d="M346.665-578.834l-7.139-.094,3.147-4.78Z" transform="translate(190.991 617.702)" fill="#3d3396"/>
      <path id="path108" d="M365.7-577.328l10,2.615-16.268,24.676-63.417-45.524L365.7-577.328" transform="translate(157.966 608.705)" fill="#444bf7"/>
      <path id="path110" d="M135.661-535.415c24.451,34.336-8.759,31.306,9.074,57.131,16.257,23.538,48.583,8.734,38.334,57.813-2.242,10.737,4.273,20.081,14.616,26.045,17.02,9.811,35.835,6.553,48.868-4.025q1.587-1.277,3.056-2.714A43.435,43.435,0,0,0,261.843-442.2c-2.913-13.19-9.71-26.829-24.561-34.306-34.843-17.548-6.246-62.8-36.951-70.162-37.031-8.884-36.062-22.853-59.533-45.852-24.88-24.385-38.275,10.573-5.137,57.1" transform="translate(21.277 604.949)" fill="#ff928e"/>
      <path id="path112" d="M136.331-570.021c.678.985,57.009,82.74,95.009,150.8,1.058-.851,2.078-1.759,3.056-2.714-38.124-68.121-94.1-149.372-94.784-150.357a2,2,0,0,0-2.775-.5,1.99,1.99,0,0,0-.507,2.772" transform="translate(36.49 625.717)" fill="#3d3396"/>
      <path id="path114" d="M133.833-467.8c42.526,33.6.44,41.8,31.736,67.265,28.53,23.215,63.115-6.682,68.106,57.591,1.091,14.061,12.494,23.252,27.406,26.9,24.537,6,46.593-4.789,58.878-22.534,1-1.431,1.935-2.918,2.8-4.447a55.84,55.84,0,0,0,.349-55.055c-8.335-15.233-21.627-29.627-42.648-33.522-49.321-9.138-30.283-75.27-70.837-73.326-48.91,2.341-52.732-15.25-89.974-35.206C80.169-561.3,76.2-513.328,133.833-467.8" transform="translate(1.76 646.864)" fill="#444bf7"/>
      <path id="path116" d="M123.741-512.227c1.192.973,100.119,81.645,171.494,152.008,1-1.431,1.935-2.918,2.8-4.447-71.55-70.389-169.86-150.571-171.057-151.542a2.565,2.565,0,0,0-3.607.373,2.564,2.564,0,0,0,.372,3.607" transform="translate(26.484 668.502)" fill="#463c9d"/>
      <path id="path118" d="M610.964-188.675c-37.132,19.95-6.016,31.946-33.445,47.2-25,13.9-47.426-13.692-59.981,34.85C514.792-96.009,504.81-90.521,492.9-89.754c-19.6,1.255-35.028-10-42.027-25.257-.57-1.234-1.086-2.5-1.536-3.788a43.431,43.431,0,0,1,7.212-42.207c8.455-10.535,20.588-19.75,37.216-19.875,39.011-.3,33.417-53.531,64.209-46.528,37.137,8.436,42.456-4.512,73.687-14.734,33.107-10.84,29.629,26.435-20.693,53.467" transform="translate(272.391 875.501)" fill="#ff928e"/>
      <path id="path120" d="M601.747-222.018c-1.044.584-87.764,48.92-151.985,93.107-.57-1.234-1.086-2.5-1.536-3.788,64.355-44.182,150.535-92.222,151.586-92.8a1.994,1.994,0,0,1,2.711.776,1.99,1.99,0,0,1-.776,2.709" transform="translate(273.498 889.401)" fill="#3d3396"/>
      <path id="path122" d="M655.156-134.119C602.148-122.84,636.245-96.844,596.9-87.878c-35.861,8.174-53.62-33.949-86.57,21.46-7.21,12.121-21.5,15.311-36.487,11.971-24.652-5.5-39.649-24.933-42.8-46.285q-.394-2.589-.537-5.226a55.836,55.836,0,0,1,24.075-49.513c14.225-9.966,32.514-16.98,53.088-11.159,48.263,13.659,60.494-54.066,95.992-34.355,42.81,23.766,54.03,9.691,96.261,8.3,44.766-1.48,27.073,43.284-44.768,58.569" transform="translate(259.979 905.45)" fill="#444bf7"/>
      <path id="path124" d="M652.094-177.652c-1.5.345-125.93,28.839-221.089,60.3q-.394-2.589-.537-5.226c95.328-31.409,218.985-59.737,220.489-60.077a2.561,2.561,0,0,1,3.068,1.933,2.562,2.562,0,0,1-1.93,3.068" transform="translate(260.019 922.067)" fill="#463c9d"/>
      <path id="path126" d="M429.68-384.966l6.717,1.773,3.563.936,10.09,2.66s140.1-128.182,98.013-196.89c-12.956-21.151-48.015-17.654-63.273,56.629C470.642-451,429.68-384.965,429.68-384.965" transform="translate(259.421 614.66)" fill="#ff928e"/>
      <path id="path128" d="M433.5-403.679l3.563.936c27.7-32.969,48.305-71.2,61.1-98.536A517.73,517.73,0,0,0,521.2-558.562a1.658,1.658,0,0,0-1.088-2.085,1.664,1.664,0,0,0-2.09,1.086,513.466,513.466,0,0,1-22.9,56.92c-12.857,27.476-33.647,66.008-61.618,98.963" transform="translate(262.32 635.146)" fill="#3d3396"/>
      <path id="path130" d="M415.812-368.078l7.557,5.915,4.011,3.136,11.359,8.882S686.516-436.354,670.6-546.532c-4.9-33.916-51.3-48.617-111.218,37.334-55.541,79.675-143.574,141.121-143.574,141.121" transform="translate(248.895 625.658)" fill="#444bf7"/>
      <path id="path132" d="M420.108-387.432l4.011,3.136c53.16-26.721,100.173-63.991,131.334-91.711,37-32.915,60.281-59.856,60.508-60.128a2.289,2.289,0,0,0-.244-3.239,2.3,2.3,0,0,0-3.241.237c-.232.272-23.351,27.026-60.14,59.741-31.32,27.851-78.737,65.408-132.228,91.964" transform="translate(252.156 650.928)" fill="#463c9d"/>
      <path id="path134" d="M329.3-143.469l-4.093,5.186-2.169,2.751-6.15,7.791S137.119-145.015,129.8-221.3c-2.253-23.48,26.388-40.875,80.468,6.844C260.4-170.218,329.3-143.469,329.3-143.469" transform="translate(31.71 875.006)" fill="#ff928e"/>
      <path id="path136" d="M308.1-153.831l-2.169,2.751c-39.909-9.208-77.428-26.47-102.786-39.935a492.1,492.1,0,0,1-50.266-30.349,1.58,1.58,0,0,1-.366-2.209,1.582,1.582,0,0,1,2.207-.368,488.806,488.806,0,0,0,49.959,30.155C230.163-180.264,268-162.875,308.1-153.831" transform="translate(48.815 890.553)" fill="#3d3396"/>
      <path id="path138" d="M392.157-167.178l-2.359,8.816-1.255,4.674-3.549,13.244S147.4-64.242,96.483-157.062c-15.678-28.574,11.178-66.283,105.865-35.239,87.771,28.775,189.809,25.124,189.809,25.124" transform="translate(3.334 905.954)" fill="#444bf7"/>
      <path id="path140" d="M363.083-175.74l-1.255,4.674c-55.677,10.1-112.716,8.666-152.248,5.423-46.943-3.849-80.041-11.007-80.369-11.082a2.179,2.179,0,0,1-1.668-2.6,2.182,2.182,0,0,1,2.6-1.672c.333.075,33.2,7.182,79.868,11,39.728,3.255,97.239,4.672,153.073-5.739" transform="translate(30.049 923.332)" fill="#463c9d"/>
      <path id="path142" d="M755.41-518.681V197.452a23.718,23.718,0,0,1-23.716,23.719H189.429a23.711,23.711,0,0,1-23.716-23.719V-518.681A23.719,23.719,0,0,1,189.429-542.4H731.694a23.567,23.567,0,0,1,12.358,3.478,23.688,23.688,0,0,1,11.359,20.238" transform="translate(59.061 649.058)" fill="#1a0f91"/>
      <path id="path144" d="M755.061-520.182V195.951a23.718,23.718,0,0,1-23.716,23.719H189.08A23.719,23.719,0,0,1,166.173,202.1L743.7-540.42a23.689,23.689,0,0,1,11.359,20.238" transform="translate(59.41 650.559)" fill="#1a0f91"/>
      <path id="path146" d="M697.646-494.582V141.578a12.26,12.26,0,0,1-12.266,12.261H200.919a12.26,12.26,0,0,1-12.266-12.261V-494.582a12.266,12.266,0,0,1,12.266-12.266H685.38a12.266,12.266,0,0,1,12.266,12.266" transform="translate(76.473 676.041)" fill="#fff"/>
      <path id="path148" d="M489.72-514.776h-239.4a5.206,5.206,0,0,1-5.19-5.19v-2.08a5.206,5.206,0,0,1,5.19-5.19h239.4a5.206,5.206,0,0,1,5.19,5.19v2.08a5.206,5.206,0,0,1-5.19,5.19" transform="translate(119.343 660.565)" fill="#4c4685"/>
      <path id="path150" d="M426.906-521.006a6.228,6.228,0,0,1-6.227,6.229,6.229,6.229,0,0,1-6.229-6.229,6.229,6.229,0,0,1,6.229-6.232,6.229,6.229,0,0,1,6.227,6.232" transform="translate(247.861 660.565)" fill="#4c4685"/>
      <path id="path152" d="M697.646-494.582v40.364H188.653v-40.364a12.266,12.266,0,0,1,12.266-12.266H685.38a12.266,12.266,0,0,1,12.266,12.266" transform="translate(76.473 676.041)" fill="#dfdbf1"/>
      <path id="path154" d="M578.034-495.708H269.662a7.386,7.386,0,0,0-7.468,7.095,7.229,7.229,0,0,0,7.228,7.364H578.034a7.231,7.231,0,0,0,7.231-7.231,7.229,7.229,0,0,0-7.231-7.228" transform="translate(132.293 684.497)" fill="#fff"/>
      <path id="path156" d="M217.947-488.425v5.357a2,2,0,0,1-2.993,1.729l-4.637-2.678-4.639-2.678a2,2,0,0,1,0-3.457l4.639-2.678,4.637-2.678a2,2,0,0,1,2.993,1.729v5.357" transform="translate(88.638 684.442)" fill="#373365"/>
      <path id="path158" d="M225.943-488.425v5.357a2,2,0,0,0,3,1.729l4.639-2.678,4.637-2.678a2,2,0,0,0,0-3.457l-4.637-2.678-4.639-2.678a2,2,0,0,0-3,1.729v5.357" transform="translate(104.778 684.442)" fill="#373365"/>
      <g id="g160" transform="translate(312.329 776.504)">
        <text id="text164" transform="translate(0 89)" fill="#ff928e" font-size="92" font-family="Montserrat-Black, Montserrat" font-weight="800"><tspan x="0" y="0">SEARCH</tspan></text>
      </g>
      <path id="path166" d="M629.7-367.883h0a21.4,21.4,0,0,1-21.394,21.4H237.375a21.4,21.4,0,0,1-21.4-21.4,21.4,21.4,0,0,1,21.4-21.395H608.308A21.394,21.394,0,0,1,629.7-367.883" transform="translate(97.214 765.281)" fill="#dfdbf1"/>
      <path id="path168" d="M416.731-342.165H311.17a3.513,3.513,0,0,0-3.269,3.715,3.513,3.513,0,0,0,3.269,3.713H416.731A3.513,3.513,0,0,0,420-338.449a3.513,3.513,0,0,0-3.272-3.715" transform="translate(166.986 801.042)" fill="#dfdbf1"/>
      <path id="path170" d="M416.731-332H311.17a3.513,3.513,0,0,0-3.269,3.713,3.513,3.513,0,0,0,3.269,3.715H416.731A3.513,3.513,0,0,0,420-328.284,3.513,3.513,0,0,0,416.731-332" transform="translate(166.986 808.76)" fill="#dfdbf1"/>
      <path id="path172" d="M416.731-321.83H311.17a3.513,3.513,0,0,0-3.269,3.715,3.513,3.513,0,0,0,3.269,3.715H416.731A3.513,3.513,0,0,0,420-318.115a3.513,3.513,0,0,0-3.272-3.715" transform="translate(166.986 816.476)" fill="#dfdbf1"/>
      <path id="path174" d="M416.731-311.662H311.17a3.513,3.513,0,0,0-3.269,3.713,3.513,3.513,0,0,0,3.269,3.715H416.731A3.513,3.513,0,0,0,420-307.949a3.513,3.513,0,0,0-3.272-3.713" transform="translate(166.986 824.194)" fill="#dfdbf1"/>
      <path id="path176" d="M416.731-301.5H311.17a3.513,3.513,0,0,0-3.269,3.715,3.513,3.513,0,0,0,3.269,3.715H416.731A3.513,3.513,0,0,0,420-297.78a3.513,3.513,0,0,0-3.272-3.715" transform="translate(166.986 831.911)" fill="#dfdbf1"/>
      <path id="path178" d="M416.731-291.327H311.17a3.513,3.513,0,0,0-3.269,3.715,3.513,3.513,0,0,0,3.269,3.713H416.731A3.513,3.513,0,0,0,420-287.612a3.513,3.513,0,0,0-3.272-3.715" transform="translate(166.986 839.629)" fill="#dfdbf1"/>
      <path id="path180" d="M416.731-281.161H311.17a3.513,3.513,0,0,0-3.269,3.715,3.513,3.513,0,0,0,3.269,3.715H416.731A3.513,3.513,0,0,0,420-277.446a3.513,3.513,0,0,0-3.272-3.715" transform="translate(166.986 847.346)" fill="#dfdbf1"/>
      <path id="path182" d="M416.731-270.993H311.17a3.513,3.513,0,0,0-3.269,3.715,3.512,3.512,0,0,0,3.269,3.713H416.731A3.513,3.513,0,0,0,420-267.278a3.513,3.513,0,0,0-3.272-3.715" transform="translate(166.986 855.064)" fill="#dfdbf1"/>
      <path id="path184" d="M494.77-342.165H389.212a3.515,3.515,0,0,0-3.272,3.715,3.514,3.514,0,0,0,3.272,3.713H494.77a3.513,3.513,0,0,0,3.272-3.713,3.514,3.514,0,0,0-3.272-3.715" transform="translate(226.221 801.042)" fill="#dfdbf1"/>
      <path id="path186" d="M494.77-332H389.212a3.514,3.514,0,0,0-3.272,3.713,3.515,3.515,0,0,0,3.272,3.715H494.77a3.514,3.514,0,0,0,3.272-3.715A3.513,3.513,0,0,0,494.77-332" transform="translate(226.221 808.76)" fill="#dfdbf1"/>
      <path id="path188" d="M494.77-321.83H389.212a3.515,3.515,0,0,0-3.272,3.715,3.515,3.515,0,0,0,3.272,3.715H494.77a3.513,3.513,0,0,0,3.272-3.715,3.514,3.514,0,0,0-3.272-3.715" transform="translate(226.221 816.476)" fill="#dfdbf1"/>
      <path id="path190" d="M494.77-311.662H389.212a3.514,3.514,0,0,0-3.272,3.713,3.515,3.515,0,0,0,3.272,3.715H494.77a3.514,3.514,0,0,0,3.272-3.715,3.513,3.513,0,0,0-3.272-3.713" transform="translate(226.221 824.194)" fill="#dfdbf1"/>
      <path id="path192" d="M494.77-301.5H389.212a3.515,3.515,0,0,0-3.272,3.715,3.515,3.515,0,0,0,3.272,3.715H494.77a3.514,3.514,0,0,0,3.272-3.715,3.514,3.514,0,0,0-3.272-3.715" transform="translate(226.221 831.911)" fill="#dfdbf1"/>
      <path id="path194" d="M494.77-291.327H389.212a3.515,3.515,0,0,0-3.272,3.715,3.514,3.514,0,0,0,3.272,3.713H494.77a3.513,3.513,0,0,0,3.272-3.713,3.514,3.514,0,0,0-3.272-3.715" transform="translate(226.221 839.629)" fill="#dfdbf1"/>
      <path id="path196" d="M494.77-281.161H389.212a3.515,3.515,0,0,0-3.272,3.715,3.515,3.515,0,0,0,3.272,3.715H494.77a3.513,3.513,0,0,0,3.272-3.715,3.514,3.514,0,0,0-3.272-3.715" transform="translate(226.221 847.346)" fill="#dfdbf1"/>
      <path id="path198" d="M494.77-270.993H389.212a3.515,3.515,0,0,0-3.272,3.715,3.514,3.514,0,0,0,3.272,3.713H494.77a3.513,3.513,0,0,0,3.272-3.713,3.513,3.513,0,0,0-3.272-3.715" transform="translate(226.221 855.064)" fill="#dfdbf1"/>
      <path id="path200" d="M381.057-180.57v-38.863L414.263-200Zm13-56.383A36.952,36.952,0,0,0,357.106-200a36.948,36.948,0,0,0,36.951,36.947A36.947,36.947,0,0,0,431-200a36.951,36.951,0,0,0-36.947-36.951" transform="translate(204.335 880.901)" fill="#f7941d"/>
      <path id="path202" d="M321.8-246.907a10.115,10.115,0,0,0-10.1,10.1v99.221a10.115,10.115,0,0,0,10.1,10.1H545.665a10.115,10.115,0,0,0,10.1-10.1V-236.8a10.115,10.115,0,0,0-10.1-10.1ZM545.665-122.173H321.8a15.426,15.426,0,0,1-15.409-15.409V-236.8A15.426,15.426,0,0,1,321.8-252.213H545.665A15.426,15.426,0,0,1,561.074-236.8v99.221a15.426,15.426,0,0,1-15.409,15.409" transform="translate(165.842 869.318)" fill="#dfdbf1"/>
      <path id="path204" d="M346.369-122.8H229.556a13.578,13.578,0,0,1-13.577-13.577v-101.44a13.578,13.578,0,0,1,13.577-13.577H346.369a13.578,13.578,0,0,1,13.577,13.577v101.44A13.578,13.578,0,0,1,346.369-122.8" transform="translate(97.214 869.942)" fill="#dfdbf1"/>
      <path id="path206" d="M346.369-215.4H229.556a13.578,13.578,0,0,1-13.577-13.577v-101.44a13.578,13.578,0,0,1,13.577-13.577H346.369a13.578,13.578,0,0,1,13.577,13.577v101.44A13.578,13.578,0,0,1,346.369-215.4" transform="translate(97.214 799.655)" fill="#dfdbf1"/>
      <path id="path208" d="M462.372-62.285c0,26.772-83.033,48.479-185.458,48.479S91.453-35.513,91.453-62.285s83.033-48.481,185.46-48.481S462.372-89.06,462.372-62.285" transform="translate(2.695 976.681)" fill="#dfdbf1"/>
      <path id="path210" d="M229.242-233.991l-.009-.094c-.2-1.13-.361-2.263-.476-3.384-1.707-16.457,5.575-47.51,41.748-46.138,0,0,29.957.553,36.1,29.19,0,0,2.681,13.226,4.538,22.813,0,0,.739,4.925,1.726,11.49a20.536,20.536,0,0,1-21.228,23.557c-.471-.019-.936-.028-1.391-.023-12.745.082-15.219.938-28.536,3.3a10.735,10.735,0,0,0-1.208.284,55.3,55.3,0,0,1-13.725,2.062,11.2,11.2,0,0,1-11.321-9.555c-1.358-9.269-3.715-24.035-6.215-33.506" transform="translate(106.74 845.456)" fill="#2b2c5a"/>
      <path id="path212" d="M184.972-74.427c54.063-72.688,86.193-154.382,86.193-154.382l-4.96,70.425s-46.117,77.233-62.171,94.441c-6.4,0-19.061-2.177-19.061-10.484" transform="translate(73.679 887.083)" fill="#463c9d"/>
      <path id="path214" d="M126.751-100.865,111.634-90.151l10.022,13.668,16.66-10.454-11.565-13.928" transform="translate(18.013 984.197)" fill="#f68780"/>
      <path id="path216" d="M136.219-81.222s2.093-6.693-.058-9.245-33.74-11.328-40.271-17.452-10.766-.943-12.5,2.308,42.225,56.024,42.225,56.024,17.611-10.466,21.343-15.942-7.9-9.26-10.743-15.693" transform="translate(-3.46 976.681)" fill="#f36d21"/>
      <path id="path218" d="M103.464-88.886a1.238,1.238,0,0,0,.654.716,1.231,1.231,0,0,0,1.63-.615c.093-.206,2.29-5.118,1.64-9.114a8.5,8.5,0,0,0-5.45-6.814,1.229,1.229,0,0,0-1.544.807,1.23,1.23,0,0,0,.807,1.543,6.06,6.06,0,0,1,3.755,4.86c.528,3.252-1.434,7.66-1.453,7.7a1.225,1.225,0,0,0-.039.912" transform="translate(9.438 981.232)" fill="#fff"/>
      <path id="path220" d="M106.286-88.352a1.221,1.221,0,0,0,.653.71,1.23,1.23,0,0,0,1.632-.612c.093-.206,2.288-5.119,1.64-9.114a8.477,8.477,0,0,0-5.45-6.814,1.229,1.229,0,0,0-1.544.8,1.232,1.232,0,0,0,.807,1.546,6.055,6.055,0,0,1,3.755,4.857c.531,3.272-1.434,7.66-1.454,7.7a1.236,1.236,0,0,0-.039.917" transform="translate(11.58 981.635)" fill="#fff"/>
      <path id="path222" d="M100.506-90.233a1.222,1.222,0,0,0,.655.713,1.229,1.229,0,0,0,1.629-.612c.094-.206,2.29-5.12,1.64-9.117a8.482,8.482,0,0,0-5.449-6.812,1.229,1.229,0,0,0-1.543.806,1.23,1.23,0,0,0,.807,1.544A6.06,6.06,0,0,1,102-98.852c.53,3.267-1.434,7.657-1.455,7.7a1.232,1.232,0,0,0-.039.914" transform="translate(7.194 980.209)" fill="#fff"/>
      <path id="path224" d="M124.973-48.391a23.606,23.606,0,0,0,2.256,1.71A33.775,33.775,0,0,0,132.8-43.44s62.4-37.357,100.741-74.17c0,0,65.771,35.7,101.986,24.291a5.27,5.27,0,0,0,2.1-1.945h.028a22.419,22.419,0,0,0,1.632-2.645c3.525-6.582,6.56-18.716-.129-25.818,0,0-75.751-33.7-110.127-25.382-34.4,8.349-111.579,84.982-111.579,84.982-.673,5.936,2.437,11.431,7.518,15.735" transform="translate(22.362 946.575)" fill="#1e1d33"/>
      <path id="path226" d="M140.948-80.129,131.129-74.9s-11.458-9.531-15.054-23.2l7.724-6.67s8.211,17.874,17.149,24.64" transform="translate(21.384 981.233)" fill="#373365"/>
      <path id="path228" d="M144.252-89.332,129.135-78.618,139.158-64.95,155.817-75.4,144.252-89.332" transform="translate(31.297 992.951)" fill="#f68780"/>
      <path id="path230" d="M153.72-69.686s2.093-6.7-.057-9.248-33.741-11.328-40.271-17.452-10.766-.941-12.5,2.308,42.223,56.024,42.223,56.024S160.731-48.519,164.463-54s-7.9-9.26-10.743-15.69" transform="translate(9.824 985.436)" fill="#f7941d"/>
      <path id="path232" d="M120.966-77.351a1.217,1.217,0,0,0,.653.713,1.232,1.232,0,0,0,1.63-.612c.095-.207,2.29-5.122,1.639-9.117a8.477,8.477,0,0,0-5.45-6.811,1.228,1.228,0,0,0-1.543.8,1.229,1.229,0,0,0,.808,1.543,6.062,6.062,0,0,1,3.754,4.86c.53,3.255-1.434,7.662-1.454,7.7a1.239,1.239,0,0,0-.038.915" transform="translate(22.722 989.988)" fill="#fff"/>
      <path id="path234" d="M123.787-76.821a1.226,1.226,0,0,0,.654.715,1.23,1.23,0,0,0,1.63-.615c.094-.206,2.29-5.12,1.641-9.117a8.492,8.492,0,0,0-5.45-6.813,1.232,1.232,0,0,0-1.544.809,1.231,1.231,0,0,0,.808,1.543,6.058,6.058,0,0,1,3.754,4.857c.531,3.27-1.434,7.66-1.454,7.707a1.22,1.22,0,0,0-.039.913" transform="translate(24.864 990.389)" fill="#fff"/>
      <path id="path236" d="M118.007-78.7a1.231,1.231,0,0,0,.655.716,1.233,1.233,0,0,0,1.63-.615c.093-.206,2.29-5.122,1.64-9.117a8.48,8.48,0,0,0-5.45-6.812,1.23,1.23,0,0,0-1.543.806,1.231,1.231,0,0,0,.806,1.544,6.056,6.056,0,0,1,3.755,4.859c.531,3.27-1.433,7.66-1.453,7.7a1.237,1.237,0,0,0-.04.917" transform="translate(20.478 988.963)" fill="#fff"/>
      <path id="path238" d="M143.221-42.784a20.678,20.678,0,0,0,2.125,1.816,39.868,39.868,0,0,0,4.459,3.087s65.952-30.7,107.9-63.361c0,0,72.51,37.278,110.228,32.951,29.711-3.373,26.132-49.075,18.174-61.442,0,0-94.6-8.035-129.648-3.292C221.383-128.279,137.8-58.184,137.8-58.184c-1.323,6.039.828,11.071,5.418,15.4" transform="translate(37.584 958.648)" fill="#373365"/>
      <path id="path240" d="M160.476-70.54l-9.82,5.228S139.2-74.843,135.6-88.509l8.371-5.74s7.561,16.943,16.5,23.709" transform="translate(36.207 989.218)" fill="#4c4685"/>
      <path id="path242" d="M239.525-110.659c1.421,24.741,2.359,24.882-4.717,46.131,41.8,14.835,56.092,17.709,89.814,16.558,1.217-20.327,2.535-44.217,1.947-65.525-1.766-63.356-6.677-102.936-6.677-102.936l-17.4-6.724-17.825-6.886-30.241,1.534-6.363.328-5.939.3s-6.264,31.111-15.838,57.6c-7.787,21.54,1.147,25.867,6.025,31l.551.6a9.778,9.778,0,0,1,1.658,2.535c.122.284.237.584.359.905.293.8.589,1.715.856,2.693,2.357,8.382,3.785,21.885,3.785,21.885" transform="translate(102.715 886.148)" fill="#444bf7"/>
      <path id="path244" d="M228.393-178.442l.551.6a9.778,9.778,0,0,1,1.658,2.535c.122.284.237.584.359.905a115.03,115.03,0,0,0,45.177,8.873c.973,0,1.958-.007,2.957-.033a1.285,1.285,0,0,0,1.255-1.311,1.282,1.282,0,0,0-1.281-1.25h-.03c-27.052.64-46.209-8.092-50.646-10.32" transform="translate(106.637 925.313)" fill="#463c9d"/>
      <path id="path246" d="M243.27-228.612c-2.181,9.581-6.877,28.963,7.5,29.336,17.276.45,34.566-16.57,38.417-23.876l-17.827-6.888-28.086,1.428" transform="translate(116.027 886.148)" fill="#f68780"/>
      <path id="path248" d="M220.015-80.767c24.549-15.494,57.389-46.267,57.389-46.267s14.487-17.281,44.923-95.269c0,0,16.338,18.84,5.007,61-11.04,41.072-28.789,55.818-28.789,55.818s-45.374,32.5-69.39,40.552c-3.783-6.33-5.662-9.328-9.14-15.829" transform="translate(100.278 892.021)" fill="#463c9d"/>
      <path id="path250" d="M154.917-132.733l154.621,15.47a4.222,4.222,0,0,0,4.62-3.781l.394-3.926a4.22,4.22,0,0,0-3.778-4.62L156.15-145.06a4.222,4.222,0,0,0-4.62,3.781l-.392,3.926a4.219,4.219,0,0,0,3.778,4.62" transform="translate(47.982 950.635)" fill="#f36d21"/>
      <path id="path252" d="M165.24-105.328l133.372,12.9-33.257-76.41-133.372-12.9,33.257,76.41" transform="translate(33.458 922.811)" fill="#f7941d"/>
      <path id="path254" d="M155.6-110.1l.009.028,133.367,12.9-33.253-76.412-8.3-.8,33.25,76.386L155.6-110.1" transform="translate(51.388 928.387)" fill="#f36d21"/>
      <path id="path256" d="M173.579-153.612a8.534,8.534,0,0,0,7.646,9.342,8.538,8.538,0,0,0,9.344-7.644,8.537,8.537,0,0,0-7.646-9.344,8.537,8.537,0,0,0-9.344,7.646" transform="translate(64.999 938.323)" fill="#f0b93a"/>
      <path id="path258" d="M240.178-253.816s-5.72-5.978-9-.27,3.588,20.982,12.508,16.242l-3.5-15.972" transform="translate(108.115 866.022)" fill="#f3625c"/>
      <path id="path260" d="M236.97-245.65a1.7,1.7,0,0,1-1.534,1.86,1.705,1.705,0,0,1-1.86-1.536,1.707,1.707,0,0,1,1.534-1.86,1.705,1.705,0,0,1,1.86,1.536" transform="translate(110.565 873.127)" fill="#fff"/>
      <path id="path262" d="M240.324-245.059a.783.783,0,0,1-.807-.474c-1.9-4.733-7.409-6.2-7.463-6.218a.741.741,0,0,1-.546-.919.8.8,0,0,1,.969-.528c.258.063,6.318,1.665,8.514,7.118a.749.749,0,0,1-.457.973l-.209.047" transform="translate(108.979 868.551)" fill="#f04147"/>
      <path id="path264" d="M233.7-248.081l-.436-.077a.727.727,0,0,1-.333-1.009,7.131,7.131,0,0,1,2.732-2.538.806.806,0,0,1,1.072.279.736.736,0,0,1-.3,1.023,5.624,5.624,0,0,0-2.1,1.919.793.793,0,0,1-.629.4" transform="translate(110.01 869.629)" fill="#f04147"/>
      <path id="path266" d="M271.018-238.361,272.869-219s-8.34,7.8-15.3,9.079-10.172-6.764-10.172-6.764L245.674-234.7l25.344-3.656" transform="translate(119.754 879.832)" fill="#f68780"/>
      <path id="path268" d="M271.123-237.281l.736,7.726c-4.212,5.678-12.4,8.328-24.957,7.681l-1.126-11.753,25.347-3.654" transform="translate(119.832 880.652)" fill="#f3625c"/>
      <path id="path270" d="M235.687-232.924c.4,1.848.849,3.727,1.365,5.587,3.427,12.381,12.691,25.222,22.968,26.545,22.187,2.857,29.578-15.064,31.848-27.98.251-1.433-.622-2.965-.476-4.648.347-3.989,1.506-8.6,1.447-13.026-.042-3.068-.155-6.089-.286-8.814a17.868,17.868,0,0,0-12.672-16.38c-10.364-3.019-25.825-4.717-39.381,5.078a18.028,18.028,0,0,0-7.3,16.009,135.295,135.295,0,0,0,2.491,17.63" transform="translate(110.242 852.785)" fill="#f68780"/>
      <path id="path272" d="M252.4-240.515a.846.846,0,0,0,.765-.781.85.85,0,0,0-.786-.908l-2.943-.211,2.976-11.009a.847.847,0,0,0-.6-1.039.849.849,0,0,0-1.039.6l-3.513,13,5,.359.141,0" transform="translate(120.961 867.589)" fill="#f3625c"/>
      <path id="path274" d="M242.519-253.732c-8.12,4.684-4.461,14.511-6.846,19.844-.155.347-.342.425-.561.274a132.931,132.931,0,0,1-2.566-17.966,18.274,18.274,0,0,1,7.749-16.35c14.319-10.029,30.6-8.35,41.515-5.308a18.193,18.193,0,0,1,13.3,16.662c.129,2.779.235,5.859.272,8.987-1.33.971-4.735,1.684-4.665,3.961.192,6.028.291,10.156-1,9.916-2.165-.406-4.168-7.536-2.2-12.456,0,0-2.245-2.972-10.444-5.265a153.783,153.783,0,0,1-20.839-7.8s-4.074-1.951-5.793-4.339a18.087,18.087,0,0,1-7.927,9.836" transform="translate(109.75 851.58)" fill="#2b2c5a"/>
      <path id="path276" d="M244.833-252.383c.178,1.858-.636,3.455-1.818,3.567s-2.282-1.3-2.46-3.162.638-3.455,1.818-3.567,2.284,1.3,2.46,3.162" transform="translate(115.85 866.784)" fill="#2b2c5a"/>
      <path id="path278" d="M259.157-253.716c.176,1.858-.638,3.457-1.818,3.57s-2.284-1.3-2.463-3.162.638-3.455,1.82-3.567,2.282,1.3,2.46,3.159" transform="translate(126.721 865.774)" fill="#2b2c5a"/>
      <path id="path280" d="M240.247-258.327a41.383,41.383,0,0,1,8.83-1.607c.978-.061,1.829.6,1.768,1.391l0,.019a1.377,1.377,0,0,1-1.456,1.126c-2.542.049-9.142.722-12.13,1.93a1.6,1.6,0,0,1,.518-1.393,5.2,5.2,0,0,1,2.472-1.466" transform="translate(113.339 863.455)" fill="#2b2c5a"/>
      <path id="path282" d="M263.05-260.544a41.407,41.407,0,0,0-8.976-.033c-.973.115-1.7.915-1.5,1.682l0,.019a1.376,1.376,0,0,0,1.632.851c2.512-.4,9.128-.9,12.28-.232a1.6,1.6,0,0,0-.755-1.278,5.192,5.192,0,0,0-2.69-1.009" transform="translate(124.969 862.794)" fill="#2b2c5a"/>
      <path id="path284" d="M245.141-242.386c.908,2.9,3.506,8.141,10.507,7.472,7.017-.668,8.511-5.828,8.861-9.32l-19.368,1.848" transform="translate(119.349 875.374)" fill="#fff"/>
      <path id="path286" d="M253.253-234.74a8.308,8.308,0,0,1-3.987-.762.833.833,0,0,1-.378-1.114.827.827,0,0,1,1.109-.378,6.727,6.727,0,0,0,3.1.6,7.021,7.021,0,0,0,3.089-1.2.833.833,0,0,1,1.163.174.831.831,0,0,1-.171,1.161,8.657,8.657,0,0,1-3.924,1.515" transform="translate(122.129 880.295)" fill="#f3625c"/>
      <path id="path288" d="M265.67-255.922s5.244-7.766,9.241-2.911.511,20.658-8.418,17.736l-.823-14.825" transform="translate(134.932 863.081)" fill="#f68780"/>
      <path id="path290" d="M270.689-248.868a1.7,1.7,0,0,1-1.536,1.858,1.705,1.705,0,0,1-1.86-1.536,1.708,1.708,0,0,1,1.536-1.86,1.708,1.708,0,0,1,1.86,1.539" transform="translate(136.158 870.683)" fill="#fff"/>
      <path id="path292" d="M267.288-248.244a.726.726,0,0,0,.647-.6c.875-4.86,5.6-7.247,5.645-7.268a.729.729,0,0,0,.328-.976.722.722,0,0,0-.971-.331c-.223.108-5.425,2.721-6.433,8.317a.724.724,0,0,0,.586.844l.2.009" transform="translate(135.556 865.312)" fill="#f3625c"/>
      <path id="path294" d="M271.091-252.5l.38-.152a.73.73,0,0,0,.122-1.023,6.676,6.676,0,0,0-2.929-1.933.729.729,0,0,0-.922.46.728.728,0,0,0,.457.919,5.261,5.261,0,0,1,2.249,1.454.733.733,0,0,0,.643.274" transform="translate(136.476 866.712)" fill="#f3625c"/>
      <path id="path296" d="M252.174-253.742a2.056,2.056,0,0,1,1.8-2.282l12.264-1.445a2.053,2.053,0,0,1,2.282,1.8l.185,1.567a8.353,8.353,0,0,1-1.729,6.22,7.582,7.582,0,0,1-4.9,2.925l-.293.035a8.429,8.429,0,0,1-6.232-1.757,8.485,8.485,0,0,1-3.218-5.737Zm-1.447.171.155,1.325a9.949,9.949,0,0,0,3.771,6.715,9.866,9.866,0,0,0,7.3,2.055l.321-.04a9.006,9.006,0,0,0,5.84-3.45,9.815,9.815,0,0,0,2.036-7.306l-.183-1.569a3.451,3.451,0,0,0-.378-1.205,3.47,3.47,0,0,0-.936-1.138,3.5,3.5,0,0,0-2.585-.732L253.8-257.468a3.5,3.5,0,0,0-2.911,2.357,3.434,3.434,0,0,0-.171,1.447l.007.094" transform="translate(123.572 864.212)" fill="#2b2c5a"/>
      <path id="path298" d="M237.39-252a2.053,2.053,0,0,1,1.8-2.28l12.269-1.447a2.059,2.059,0,0,1,2.282,1.8l.185,1.569a8.367,8.367,0,0,1-1.726,6.218,7.6,7.6,0,0,1-4.9,2.925l-.3.035a8.413,8.413,0,0,1-6.227-1.754,8.5,8.5,0,0,1-3.223-5.737Zm-1.447.174.157,1.325a9.955,9.955,0,0,0,3.769,6.712,9.856,9.856,0,0,0,7.3,2.055l.326-.038a9,9,0,0,0,5.835-3.452,9.829,9.829,0,0,0,2.043-7.306l-.185-1.567-.014-.066a3.333,3.333,0,0,0-.45-1.3,3.506,3.506,0,0,0-3.434-1.707l-12.269,1.447a3.515,3.515,0,0,0-2.533,1.574,3.453,3.453,0,0,0-.521,1.372,3.327,3.327,0,0,0-.023.955" transform="translate(112.35 865.535)" fill="#2b2c5a"/>
      <path id="path300" d="M261.132-257.377A17.559,17.559,0,0,1,269.915-260l-.375,1.489a16.511,16.511,0,0,0-7.472,2.275,6.346,6.346,0,0,0-.553.368l-.9-1.142c.038-.028.211-.166.521-.364" transform="translate(131.092 863.405)" fill="#2b2c5a"/>
      <path id="path302" d="M254.448-255.148l.314-1.421a14.849,14.849,0,0,0-4.433-.216,9.865,9.865,0,0,0-3.879,1.227l.783,1.229a8.584,8.584,0,0,1,3.265-1.009,13.59,13.59,0,0,1,3.95.19" transform="translate(120.343 865.785)" fill="#2b2c5a"/>
      <path id="path304" d="M233.762-255.922a20.294,20.294,0,0,1,5.24,1l-.483,1.372a19.48,19.48,0,0,0-5.125-.919l.368-1.449" transform="translate(110.433 866.503)" fill="#2b2c5a"/>
      <path id="path306" d="M438.661-343.73c1.391,1.97,3.656,5.394,6.628,9.046a9.251,9.251,0,0,0,4.63,2.882c1.058,2.681,2.331,5.842,3.762,9.325q8.918-3.634,17.543-7.887c-1.184-1.956-2.284-3.8-3.251-5.488,0,0,3.3-8.525,3.994-14.387s-.34-8.157-3.577-10.09-6.874-3.213-7.428-3.821-9.367-20.168-13.6-21.875c-4.128-1.67,3.445,18.735,3.781,19.643-.279-.434-3.488-5.69-6.3-4.841-2.941.851-2.908,4.095-2.908,4.095s-4.81-.75-6.422,1.128.507,5.261.507,5.261a3.754,3.754,0,0,0-1.667-.293c-2.833,1.011-2.338,5.068-1.062,7.791a64.2,64.2,0,0,0,5.369,9.511" transform="translate(261.391 767.677)" fill="#f68780"/>
      <path id="path308" d="M588.413-364.379s32.019,75.035,32.019,115.657-54.922,44.839-54.922,44.839l-9.227-22.032s39.8-7.125,35.052-54.635l-2.922-83.828" transform="translate(355.518 784.18)" fill="#463c9d"/>
      <path id="path310" d="M467.16-68.076c0,12.332,51.268,22.328,114.508,22.328s114.508-10,114.508-22.328S644.909-90.407,581.668-90.407s-114.508,10-114.508,22.331" transform="translate(287.87 992.135)" fill="#dfdbf1"/>
      <path id="path312" d="M523.527-395.108a7.783,7.783,0,0,1-7.773-7.775,7.721,7.721,0,0,1,.274-2.052,7.746,7.746,0,0,1,2.158-3.588,7.692,7.692,0,0,1,3.588-1.93,7.571,7.571,0,0,1,1.752-.2,7.626,7.626,0,0,1,2.463.4,7.781,7.781,0,0,1,5.312,7.372,7.783,7.783,0,0,1-7.775,7.775Zm4.491-15.813a8.893,8.893,0,0,0-2.777-1.008h-.007a8.549,8.549,0,0,0-1.708-.164,9.213,9.213,0,0,0-8.464,5.587l-.007,0a9.6,9.6,0,0,0-.547,1.731,9.3,9.3,0,0,0-.195,1.888,9.226,9.226,0,0,0,9.213,9.213,9.226,9.226,0,0,0,9.213-9.213,9.214,9.214,0,0,0-4.721-8.038" transform="translate(323.662 747.963)" fill="#444bf7"/>
      <path id="path314" d="M557.611-390.954v18.31s-5.458,9.328-12.848,9.961c-7.374.647-13.936-8.026-13.936-8.026v-18.958l26.784-1.288" transform="translate(336.195 764.009)" fill="#f68780"/>
      <path id="path316" d="M538.2-388.438s-1.184,6.49-7.372,8.866v-8.408l7.372-.457" transform="translate(336.195 765.919)" fill="#f3625c"/>
      <path id="path318" d="M542.164-352.7c27.577,7.8,36.625-13.5,40.481-27,.425-1.5.812-3.164,1.149-4.944l.042-.223c.375-2,.7-4.125.973-6.316.206-1.623.38-3.269.539-4.93.392-4.032.647-8.075.816-11.666a19.041,19.041,0,0,0-12.2-18.688c-11.07-4.257-27.875-7.627-43.8,1.4a19.129,19.129,0,0,0-9.705,16.27s-2.782,10.8-1.461,15.651a49.55,49.55,0,0,1,2.052,12.761c.439,6.45,4.1,21.988,7.916,25.213s13.2,2.465,13.2,2.465" transform="translate(326.945 733.791)" fill="#f68780"/>
      <path id="path320" d="M526.64-397.514a.868.868,0,0,0,.678-.8c.321-5.9,5.573-9.424,5.624-9.461a.87.87,0,0,0,.251-1.2.873.873,0,0,0-1.205-.251c-.246.162-6.035,4.032-6.405,10.819a.867.867,0,0,0,.818.917l.239-.019" transform="translate(332.213 750.028)" fill="#f3625c"/>
      <path id="path322" d="M531.019-403.511l.429-.237a.866.866,0,0,0-.009-1.229,7.908,7.908,0,0,0-3.757-1.862.874.874,0,0,0-1.027.678.872.872,0,0,0,.678,1.027,6.3,6.3,0,0,1,2.885,1.393.869.869,0,0,0,.8.23" transform="translate(333.014 751.938)" fill="#f3625c"/>
      <path id="path324" d="M590.476-385.178c-1.119,14.616-7.524,30.38-7.524,30.38-7,15.437-20.027,12.609-27.068,10.5-5.146-1.543-12.123-7.257-14.973-9.881a17.234,17.234,0,0,1-4.28-7.458,2.96,2.96,0,0,1,2.632-3.79c3.279-.317,6.7-3.1,7.515-10.826,1.388-13.111-7.36-13.122-7.36-13.122-5.3-.469-8.117,6.175-8.117,6.175a16.75,16.75,0,0,1-2.589-11.234c.591-6.126-5.587-1.761-5.587-1.761s-8.678-7.545-8.873-14.973,4.13-7.723,8.024-9.628-5.092-8.941-.793-12.653,9.184-4.1,12.7-2.151,4.693-7.622,10.069-7.817,8.793,5.669,12.555,3.323,13.341-5.863,17.64,1.367,5.474,9.088,8.992,9.48,13.289,7.132,11.335,18.273-3.649,17.262-4.3,25.8" transform="translate(323.608 724.181)" fill="#2b2c5a"/>
      <path id="path326" d="M537.077-412.337a7.117,7.117,0,0,0-2.416,1.3,16.316,16.316,0,0,0-5.472.4c-.42.1-.837.2-1.255.324-.685.2-1.365.42-2.029.666a37.821,37.821,0,0,0-3.945,1.731,51.715,51.715,0,0,0-6.016,3.589c-.741.516-1.166.844-1.191.863l-.328-.7a9.58,9.58,0,0,1,.546-1.731l.007,0c.718-.5,1.8-1.224,3.124-2.017,1.055-.626,2.268-1.3,3.588-1.93l.145-.068c1.044-.5,2.158-.98,3.314-1.407h.007a28.433,28.433,0,0,1,3.621-1.07,16.511,16.511,0,0,1,8.3.054" transform="translate(323.746 747.355)" fill="#444bf7"/>
      <path id="path328" d="M577.821-58.067a19.633,19.633,0,0,1-6.654-.073l-3.126-1.011-5.127-1.55s-18.432-7.238-24.962-13.582-5.359-13.329,4.815-16.735,19.272-.182,24.708-2.356c0,0,16.291,1.37,15.383,10.073.209,8.1.694,12.385-.389,20.569a5.42,5.42,0,0,1-4.648,4.665" transform="translate(338.524 989.882)" fill="#f7941d"/>
      <path id="path330" d="M559.833-89.254a1.089,1.089,0,0,0,.7-.495,1.088,1.088,0,0,0-.359-1.494c-.171-.105-4.231-2.563-7.8-2.432a7.485,7.485,0,0,0-6.558,4.027,1.087,1.087,0,0,0,.539,1.437,1.083,1.083,0,0,0,1.438-.537,5.339,5.339,0,0,1,4.66-2.756c2.92-.108,6.548,2.093,6.586,2.113a1.089,1.089,0,0,0,.8.136" transform="translate(347.498 989.65)" fill="#fff"/>
      <path id="path332" d="M557.755-89.486a1.085,1.085,0,0,0,.7-.492,1.093,1.093,0,0,0-.359-1.5c-.174-.1-4.233-2.561-7.8-2.43a7.5,7.5,0,0,0-6.558,4.027,1.087,1.087,0,0,0,.539,1.438,1.082,1.082,0,0,0,1.438-.537,5.344,5.344,0,0,1,4.662-2.756c2.92-.108,6.548,2.092,6.583,2.113a1.066,1.066,0,0,0,.8.134" transform="translate(345.92 989.476)" fill="#fff"/>
      <path id="path334" d="M555.726-89.908a1.088,1.088,0,0,0,.694-.5,1.088,1.088,0,0,0-.359-1.493c-.171-.106-4.231-2.563-7.8-2.43a7.471,7.471,0,0,0-6.558,4.025,1.084,1.084,0,0,0,.537,1.438,1.085,1.085,0,0,0,1.438-.537,5.34,5.34,0,0,1,4.662-2.754c2.918-.11,6.546,2.088,6.583,2.111a1.075,1.075,0,0,0,.8.136" transform="translate(344.379 989.155)" fill="#fff"/>
      <path id="path336" d="M549.977-99.189v17.126c5.366,1.252,11.143,1.86,15.665-.251l1.023-18.151-16.687,1.276" transform="translate(350.731 984.5)" fill="#f68780"/>
      <path id="path338" d="M542.677-5.414a15.94,15.94,0,0,0,5.854,12.853,16.381,16.381,0,0,0,3.023,1.942l.453.212a15.942,15.942,0,0,0,6.609,1.433h11.943a15.953,15.953,0,0,0,7.873-2.073,16.668,16.668,0,0,0,3.635-2.834A15.95,15.95,0,0,0,586.5-5.414c-.8-26.319-1.923-76.607.563-91.946,2.423-14.947,6.558-81.476,8.76-118.92.819-13.624,1.365-23.4,1.473-25.436l-50.827-.671c-.246,4.067-.828,14.016-1.5,27.169h-.017c-1.67,32.917-4.053,81.347-4.829,115.838-.706,31.39,3.225,71.707,2.554,93.965" transform="translate(343.187 876.777)" fill="#373365"/>
      <path id="path340" d="M544.337-242.385l50.827.668c-.106,2.033-.65,11.809-1.471,25.438-17.26,2.118-35.235,3.007-50.85,1.06.671-13.151,1.255-23.1,1.494-27.166" transform="translate(345.315 876.778)" fill="#1e1d33"/>
      <path id="path342" d="M542.374-58.067a19.618,19.618,0,0,1-6.651-.073L532.6-59.151l-5.129-1.55S509.032-67.939,502.5-74.283s-5.362-13.329,4.815-16.735,19.27-.182,24.708-2.356c0,0,16.291,1.37,15.383,10.073.209,8.1.694,12.385-.389,20.569a5.42,5.42,0,0,1-4.649,4.665" transform="translate(311.617 989.882)" fill="#f7941d"/>
      <path id="path344" d="M524.386-89.254a1.088,1.088,0,0,0,.7-.495,1.086,1.086,0,0,0-.361-1.494c-.169-.105-4.229-2.563-7.8-2.432a7.481,7.481,0,0,0-6.558,4.027,1.083,1.083,0,0,0,.539,1.437,1.084,1.084,0,0,0,1.438-.537,5.335,5.335,0,0,1,4.66-2.756c2.918-.108,6.546,2.093,6.583,2.113a1.1,1.1,0,0,0,.8.136" transform="translate(320.591 989.65)" fill="#fff"/>
      <path id="path346" d="M522.307-89.486a1.075,1.075,0,0,0,.7-.492,1.089,1.089,0,0,0-.359-1.5c-.171-.1-4.231-2.561-7.8-2.43a7.481,7.481,0,0,0-6.555,4.027,1.082,1.082,0,0,0,.537,1.438,1.083,1.083,0,0,0,1.438-.537,5.34,5.34,0,0,1,4.663-2.756c2.917-.108,6.546,2.092,6.581,2.113a1.074,1.074,0,0,0,.8.134" transform="translate(319.014 989.476)" fill="#fff"/>
      <path id="path348" d="M520.277-89.908a1.1,1.1,0,0,0,.7-.5,1.09,1.09,0,0,0-.361-1.493c-.171-.106-4.233-2.563-7.8-2.43a7.479,7.479,0,0,0-6.558,4.025,1.085,1.085,0,0,0,.539,1.438,1.086,1.086,0,0,0,1.438-.537,5.339,5.339,0,0,1,4.66-2.754c2.92-.11,6.548,2.088,6.584,2.111a1.076,1.076,0,0,0,.8.136" transform="translate(317.472 989.155)" fill="#fff"/>
      <path id="path350" d="M515.4-99.189l1,17.109c6.325,1.75,11.077,2.557,14.666-.235l1.023-18.151L515.4-99.189" transform="translate(324.486 984.5)" fill="#f68780"/>
      <path id="path352" d="M508.1-5.414a15.928,15.928,0,0,0,5.856,12.853,16.285,16.285,0,0,0,3.021,1.942l.45.212a15.969,15.969,0,0,0,6.612,1.433h11.94a15.956,15.956,0,0,0,7.876-2.073,16.785,16.785,0,0,0,3.635-2.834,15.947,15.947,0,0,0,4.428-11.532c-.8-26.319-1.923-76.607.565-91.946,2.352-14.5,6.314-77.569,8.558-115.5.07-1.163.139-2.306.2-3.415.818-13.624,1.367-23.4,1.473-25.436l-50.829-.671c-.016.256-.031.518-.047.783-.237,3.966-.694,11.912-1.241,22.3-.066,1.323-.138,2.688-.209,4.09h-.019c-1.668,32.917-4.048,81.347-4.827,115.838-.706,31.39,3.225,71.707,2.554,93.965" transform="translate(316.941 876.777)" fill="#373365"/>
      <path id="path354" d="M508.244-219.338l.244.03c15.09,1.893,32.507,4.989,50.442,6.443.07-1.163.138-2.306.2-3.415.819-13.624,1.367-23.4,1.473-25.436l-50.829-.671c-.016.256-.03.518-.047.783-.274,4.046-.856,9.935-1.485,22.265" transform="translate(319.054 876.777)" fill="#1e1d33"/>
      <path id="path356" d="M633.554-226.595q-.032-2.962-.061-5.931c-.007-.476-.007-.945-.016-1.412-.019-1.937-.047-3.863-.07-5.8,0-1.17-.021-2.313-.04-3.457,0-.563-.016-1.116-.028-1.675-.007-.647-.019-1.3-.031-1.944-.014-1.2-.033-2.409-.049-3.6-.007-.6-.019-1.2-.031-1.8s-.016-1.215-.026-1.822c-.019-1.163-.042-2.31-.059-3.452-.019-1.208-.03-2.413-.052-3.6-.016-.69-.035-1.372-.052-2.062-.007-.518-.019-1.039-.023-1.557-.04-1.206-.052-2.406-.068-3.593q-.028-1.1-.052-2.193c-.012-.425-.024-.849-.028-1.266-.019-1.1-.056-2.216-.068-3.3-.019-.556-.042-1.088-.042-1.625v-.091c-.016-.7-.035-1.386-.057-2.08v-.117c-.917-37.055-2.519-67.293-5.237-71.344-3.176-4.7-12.768-10.808-22.677-16.575-7.545-4.412-22.71-12.78-27.924-16.014-6.637,4.306-16.392,4.111-26.782,3-11.6,7.313-31.161,20.3-36.715,28.5-2.735,4.051-4.578,34.838-5.793,72.428-.084,2.376-.164,4.789-.223,7.214-.012.418-.021.842-.033,1.267q-.035,1.091-.054,2.193c-.056,1.187-.073,2.388-.108,3.593-.016.518-.033,1.039-.052,1.557-.016.69-.04,1.372-.063,2.062-.033,1.189-.068,2.395-.091,3.6-.016,1.142-.056,2.289-.075,3.452-.016.607-.028,1.213-.045,1.822s-.028,1.2-.047,1.8c-.016,1.187-.056,2.395-.068,3.6-.023.645-.035,1.3-.047,1.944-.012.558-.021,1.112-.026,1.675-.023,1.145-.059,2.308-.077,3.457-.045,1.935-.073,3.879-.117,5.8,0,.474-.019.94-.031,1.412q-.06,2.969-.108,5.931c-.783,43.331-.931,84.213-.814,96.78a240.138,240.138,0,0,0,128.144,0c.16-12.679.333-53.564-.087-96.78" transform="translate(316.942 770.117)" fill="#444bf7"/>
      <path id="path358" d="M506.4-311.657H632.331c-.007-.518-.019-1.039-.024-1.557-.04-1.206-.052-2.406-.068-3.593q-.028-1.1-.052-2.193H506.61q-.035,1.091-.054,2.193c-.056,1.187-.073,2.388-.108,3.593-.016.518-.033,1.039-.052,1.557" transform="translate(317.651 818.624)" fill="#463c9d"/>
      <path id="path360" d="M506.148-301.271H632.817c-.007-.647-.019-1.3-.031-1.944-.014-1.2-.033-2.409-.049-3.6-.007-.6-.019-1.2-.03-1.8H506.31c-.012.6-.028,1.2-.047,1.8-.016,1.187-.056,2.395-.068,3.6-.023.645-.035,1.3-.047,1.944" transform="translate(317.463 826.513)" fill="#463c9d"/>
      <path id="path362" d="M505.944-290.876H633.188q-.032-2.962-.061-5.931c-.007-.476-.007-.945-.016-1.412H506.083c0,.474-.019.94-.03,1.412q-.06,2.969-.108,5.931" transform="translate(317.308 834.398)" fill="#463c9d"/>
      <path id="path364" d="M442.607-345.1s17.009,54.335,49.136,79.077c5.139,3.961,12.33,5.43,18.411,3.166,10.409-3.882,36.032-20.051,45.219-32.408,0,0,15.878-46.56,5.7-69.728,0,0-27.312,39.266-57.236,63.447l-.286.232c-.432.349-.872.7-1.316,1.046,0,0-.551-.434-1.5-1.194l-.279-.227c-4.229-3.408-15.006-12.351-21.58-20.076-8.314-9.783-17.97-30.176-17.97-30.176a27.962,27.962,0,0,1-18.3,6.841" transform="translate(269.233 783.711)" fill="#444bf7"/>
      <path id="path366" d="M475.378-310.922a1.554,1.554,0,0,0,1.4-.286,1.527,1.527,0,0,0,.5-.772,73.486,73.486,0,0,0,2.535-16.948l-.286.232c-.432.349-.872.7-1.316,1.046,0,0-.551-.434-1.5-1.194a69.509,69.509,0,0,1-2.374,16.028,1.518,1.518,0,0,0,1.048,1.893" transform="translate(293.264 811.089)" fill="#463c9d"/>
      <path id="path368" d="M389.6-69.35c0,6.747,28.046,12.217,62.645,12.217s62.643-5.47,62.643-12.217-28.046-12.215-62.643-12.215S389.6-76.1,389.6-69.35" transform="translate(228.998 998.846)" fill="#dfdbf1"/>
      <path id="path370" d="M474.887-37.4H426.652a15.141,15.141,0,0,1-14.4-10.463l-20.456-62.961a4.185,4.185,0,0,1,3.661-5.463,708.676,708.676,0,0,1,110.636-.009,4.185,4.185,0,0,1,3.652,5.462L489.287-47.863a15.144,15.144,0,0,1-14.4,10.463" transform="translate(230.508 970.846)" fill="#f7941d"/>
      <path id="path372" d="M503.237-113.315c0,1.675-24.338,3.033-54.361,3.033s-54.361-1.358-54.361-3.033,24.338-3.032,54.361-3.032,54.361,1.355,54.361,3.032" transform="translate(232.73 972.445)" fill="#373365"/>
      <path id="path374" d="M428.882-79.625v-78.558a2.55,2.55,0,0,0-2.549-2.549,2.55,2.55,0,0,0-2.549,2.549v78.558a4.769,4.769,0,0,0,5.1,0" transform="translate(254.945 938.755)" fill="#463c9d"/>
      <path id="path376" d="M425.232-133.733s4.829-34.836,49.438-34.836c0,0-7.648,49.279-49.438,34.836" transform="translate(256.045 932.807)" fill="#444bf7"/>
      <path id="path378" d="M447.86-127.651s-4.829-34.834-49.436-34.834c0,0,7.648,49.276,49.436,34.834" transform="translate(235.697 937.425)" fill="#444bf7"/>
      <path id="path380" d="M450.634-113.821s-11.422-33.264-55.2-24.709c0,0,16.959,46.9,55.2,24.709" transform="translate(233.427 954.54)" fill="#444bf7"/>
      <path id="path382" d="M425.212-112.472s32.777,12.749,54.5-26.207c0,0-46.762-17.328-54.5,26.207" transform="translate(256.03 952.911)" fill="#444bf7"/>
      <path id="path384" d="M91.236-137.526l26.257,3.563a6.061,6.061,0,0,0,6.823-5.2l9.027-66.508,3.735-27.5-38.274-5.2-2.212,16.3L86.044-144.351a6.062,6.062,0,0,0,5.193,6.825" transform="translate(-1.454 879.823)" fill="#f7941d"/>
      <path id="path386" d="M92.016-222.077c8.675,6.593,21.287,13.908,36.751,16.408l3.735-27.5-38.274-5.2-2.212,16.3" transform="translate(3.122 879.823)" fill="#f36d21"/>
      <path id="path388" d="M89.929-61.537,93.895-61a9.99,9.99,0,0,0,11.24-8.556l14.681-108.169-23.762-3.225L81.376-72.779a9.988,9.988,0,0,0,8.553,11.241" transform="translate(-5.024 923.411)" fill="#373365"/>
      <path id="path390" d="M67.442-257.974A92.08,92.08,0,0,1,171.349-336.22a92.078,92.078,0,0,1,78.238,103.912,92.077,92.077,0,0,1-103.9,78.239,92.076,92.076,0,0,1-78.239-103.9m-16.5-2.324a108.633,108.633,0,0,0,92.411,122.726,108.635,108.635,0,0,0,122.727-92.412,108.636,108.636,0,0,0-92.412-122.733A108.634,108.634,0,0,0,50.946-260.3" transform="translate(-28.868 792.215)" fill="#373365"/>
      <g id="g392" transform="translate(38.313 557.934)">
        <g id="g394" transform="translate(0 0)" clip-path="url(#clip-path)">
          <path id="path400" d="M59.711-204.734h126.97v-81.117H59.711Z" transform="translate(-59.711 285.851)" fill="#eae7f6"/>
        </g>
      </g>
      <path id="path402" d="M149.926-210.535a91.242,91.242,0,0,1-13.189-.959l.338.049a92.5,92.5,0,0,0,12.9.905q3.034,0,6.037-.2-3.052.2-6.082.2m6.087-.2a.17.17,0,0,0,.035,0,.17.17,0,0,1-.035,0m17.194-2.807a91.452,91.452,0,0,0,12.338-4.208l.029.019A91.865,91.865,0,0,1,173.4-213.6c-.066.019-.128.035-.194.052m-84.84-20.66a91.437,91.437,0,0,1-27.158-44,92.553,92.553,0,0,0,27.158,44" transform="translate(-20.262 849.591)" fill="#74789e"/>
      <path id="path404" d="M213.545-184.946l-152.038-88.5a91.468,91.468,0,0,0-1.748,9.609h0a91.468,91.468,0,0,1,1.748-9.609,92.372,92.372,0,0,1,13.055-29.946,92.275,92.275,0,0,1,7.449-9.719h0a92.287,92.287,0,0,0-7.449,9.719l158.594,92.307a92.444,92.444,0,0,1-13.4,19.8q-2.959,3.321-6.215,6.337m29.047-75.946c-.026-.293-.056-.586-.087-.88L114.059-336.535a91.613,91.613,0,0,1,14.343-4.956,92.022,92.022,0,0,1,16.439-2.624c2.021-.134,4.061-.2,6.108-.2a92.061,92.061,0,0,1,12.468.849,92.566,92.566,0,0,1,49.347,23.013,92.573,92.573,0,0,1,27.089,44.337c.026.1.052.2.08.3a92.184,92.184,0,0,1,2.573,14.051c.03.293.061.586.087.88h0" transform="translate(-21.362 799.406)" fill="#eae7f6"/>
      <path id="path406" d="M203.964-184.931l-.021-.014q3.251-3.011,6.215-6.337-2.938,3.318-6.194,6.351h0m26.287-91.188a92.572,92.572,0,0,0-27.089-44.337,91.452,91.452,0,0,1,27.089,44.337M72.409-313.106a91.389,91.389,0,0,1,32.011-23.449,92.565,92.565,0,0,1,13.5-4.7c.3-.077.588-.155.885-.23a91.619,91.619,0,0,0-14.343,4.956l-.037-.021a91.391,91.391,0,0,0-32.011,23.449h0m81.406-30.363a92.071,92.071,0,0,0-12.468-.849c-2.047,0-4.087.07-6.108.2q3.084-.208,6.148-.206a91.139,91.139,0,0,1,12.428.851" transform="translate(-11.76 799.405)" fill="#74789e"/>
      <path id="path408" d="M226.769-214.44,68.174-306.747a92.282,92.282,0,0,1,7.449-9.719,92.73,92.73,0,0,1,32.047-23.428L236.117-265.13c.03.293.061.586.087.88a91.806,91.806,0,0,1-.511,21.392c-.033.242-.068.486-.106.727a92.064,92.064,0,0,1-8.819,27.692h0" transform="translate(-14.974 802.765)" fill="#f2f0f9"/>
      <path id="path410" d="M232.373-242.122c.038-.242.073-.486.106-.727a91.809,91.809,0,0,0,.511-21.392q.4,4.26.4,8.486a91.1,91.1,0,0,1-1.018,13.634M72.409-316.457a91.389,91.389,0,0,1,32.011-23.449l.037.021a92.73,92.73,0,0,0-32.047,23.428" transform="translate(-11.76 802.756)" fill="#a7a8bd"/>
      <path id="path412" d="M186.96-198.153l-126.97-73.9h0q-.54-4.521-.629-9.009a92.137,92.137,0,0,1,.712-13.352,91.468,91.468,0,0,1,1.748-9.609l152.038,88.5a92.622,92.622,0,0,1-26.9,17.377" transform="translate(-21.677 829.99)" fill="#f2f0f9"/>
      <path id="path414" d="M186.99-202.281l-.029-.019a92.622,92.622,0,0,0,26.9-17.377l.021.014a91.19,91.19,0,0,1-26.891,17.382h0M59.362-285.211q-.018-.9-.018-1.794a91.21,91.21,0,0,1,.73-11.558,92.137,92.137,0,0,0-.712,13.352" transform="translate(-21.677 834.137)" fill="#a7a8bd"/>
    </g>
  </g>
</svg>
