<svg xmlns="http://www.w3.org/2000/svg" width="1250.982" height="1051.06" viewBox="0 0 1250.982 1051.06">
  <g id="g8" transform="translate(-30.741 587.596)">
    <g id="g10" transform="translate(30.741 -587.596)">
      <path id="path14" d="M1095.829-73.743c0,277.747-225.16,502.906-502.906,502.906S90.015,204,90.015-73.743,315.173-576.649,592.923-576.649s502.906,225.157,502.906,502.906" transform="translate(32.497 599.274)" fill="#dac9e9"/>
      <path id="path16" d="M443.967-256.229q-1.285,8.106-3.2,15.987a2.758,2.758,0,0,0,2.028,3.329,2.758,2.758,0,0,0,3.329-2.031q1.959-8.09,3.288-16.419a2.755,2.755,0,0,0-2.29-3.153,2.757,2.757,0,0,0-3.155,2.287M436.3-224.561q-2.559,7.784-5.713,15.287a2.755,2.755,0,0,0,1.472,3.607,2.755,2.755,0,0,0,3.607-1.472q3.237-7.7,5.87-15.7a2.753,2.753,0,0,0-1.755-3.478,2.757,2.757,0,0,0-3.481,1.755M423.665-194.5q-3.758,7.263-8.072,14.179a2.757,2.757,0,0,0,.882,3.8,2.754,2.754,0,0,0,3.795-.882q4.423-7.093,8.29-14.559a2.755,2.755,0,0,0-1.18-3.715,2.757,2.757,0,0,0-3.715,1.18m-17.243,27.671q-4.857,6.564-10.21,12.721a2.755,2.755,0,0,0,.27,3.889,2.759,2.759,0,0,0,3.888-.27q5.494-6.316,10.483-13.063a2.756,2.756,0,0,0-.579-3.855,2.755,2.755,0,0,0-3.853.579m-21.393,24.6q-5.82,5.713-12.082,10.954a2.751,2.751,0,0,0-.344,3.88,2.751,2.751,0,0,0,3.88.344q6.424-5.378,12.407-11.244a2.759,2.759,0,0,0,.036-3.9,2.755,2.755,0,0,0-3.9-.036m-24.993,20.917q-6.635,4.717-13.652,8.907a2.759,2.759,0,0,0-.953,3.781,2.753,2.753,0,0,0,3.778.951q7.2-4.3,14.022-9.147a2.755,2.755,0,0,0,.65-3.842,2.758,2.758,0,0,0-3.844-.65m-27.966,16.7q-7.288,3.6-14.887,6.628a2.756,2.756,0,0,0-1.541,3.58,2.754,2.754,0,0,0,3.58,1.541q7.8-3.1,15.287-6.8a2.758,2.758,0,0,0,1.251-3.693,2.757,2.757,0,0,0-3.69-1.251M301.805-92.565Q294.05-90.18,286.044-88.4a2.757,2.757,0,0,0-2.092,3.291,2.754,2.754,0,0,0,3.288,2.092q8.218-1.827,16.188-4.285a2.754,2.754,0,0,0,1.822-3.445,2.753,2.753,0,0,0-3.445-1.822M270-85.494q-8.02,1.12-16.226,1.615a2.756,2.756,0,0,0-2.585,2.916,2.754,2.754,0,0,0,2.916,2.585q8.42-.5,16.659-1.659a2.757,2.757,0,0,0,2.348-3.111A2.756,2.756,0,0,0,270-85.494m-32.534,1.951q-8.224-.149-16.28-.94A2.758,2.758,0,0,0,218.176-82,2.758,2.758,0,0,0,220.652-79q8.267.806,16.711.964a2.756,2.756,0,0,0,2.807-2.706,2.756,2.756,0,0,0-2.7-2.805M205.033-86.7q-8.075-1.443-15.923-3.5a2.756,2.756,0,0,0-3.365,1.968,2.756,2.756,0,0,0,1.967,3.365q8.056,2.112,16.354,3.6a2.756,2.756,0,0,0,3.2-2.229,2.756,2.756,0,0,0-2.229-3.2m-31.517-8.268q-7.733-2.7-15.174-6a2.757,2.757,0,0,0-3.635,1.405,2.753,2.753,0,0,0,1.4,3.635q7.64,3.382,15.586,6.165a2.756,2.756,0,0,0,3.511-1.692,2.757,2.757,0,0,0-1.691-3.511m-29.819-13.2q-7.189-3.894-14.023-8.336a2.757,2.757,0,0,0-3.813.81,2.756,2.756,0,0,0,.809,3.811q7.015,4.555,14.4,8.562a2.755,2.755,0,0,0,3.736-1.111,2.757,2.757,0,0,0-1.11-3.737m-27.341-17.759q-6.473-4.977-12.529-10.445a2.753,2.753,0,0,0-3.891.2,2.754,2.754,0,0,0,.2,3.891q6.212,5.61,12.863,10.726a2.758,2.758,0,0,0,3.865-.507,2.755,2.755,0,0,0-.505-3.864M92.165-147.776q-5.6-5.924-10.726-12.283a2.758,2.758,0,0,0-3.875-.419,2.756,2.756,0,0,0-.417,3.875q5.258,6.527,11.013,12.613a2.755,2.755,0,0,0,3.9.11,2.758,2.758,0,0,0,.11-3.9h0M71.719-173.151q-4.591-6.721-8.651-13.818a2.756,2.756,0,0,0-3.76-1.022,2.754,2.754,0,0,0-1.024,3.759q4.164,7.284,8.882,14.19a2.758,2.758,0,0,0,3.83.722,2.758,2.758,0,0,0,.722-3.831M55.546-201.426q-3.46-7.35-6.345-15.005a2.756,2.756,0,0,0-3.55-1.609,2.756,2.756,0,0,0-1.608,3.549q2.958,7.862,6.516,15.413a2.755,2.755,0,0,0,3.666,1.32,2.757,2.757,0,0,0,1.321-3.668M44.072-231.911q-2.241-7.8-3.873-15.835A2.755,2.755,0,0,0,36.95-249.9a2.758,2.758,0,0,0-2.154,3.249q1.673,8.251,3.979,16.265a2.757,2.757,0,0,0,3.41,1.888,2.758,2.758,0,0,0,1.887-3.412M37.6-263.843q-.97-8.036-1.313-16.254a2.755,2.755,0,0,0-2.867-2.637,2.754,2.754,0,0,0-2.641,2.866q.349,8.433,1.35,16.687a2.756,2.756,0,0,0,3.066,2.406,2.757,2.757,0,0,0,2.4-3.067m-1.35-32.566q.3-8.214,1.241-16.257a2.755,2.755,0,0,0-2.419-3.056,2.755,2.755,0,0,0-3.055,2.42q-.959,8.251-1.275,16.692a2.757,2.757,0,0,0,2.653,2.855,2.756,2.756,0,0,0,2.855-2.654m3.767-32.365q1.592-8.048,3.8-15.857a2.754,2.754,0,0,0-1.9-3.4,2.756,2.756,0,0,0-3.4,1.9q-2.266,8.015-3.9,16.281a2.756,2.756,0,0,0,2.169,3.238,2.754,2.754,0,0,0,3.238-2.166m8.859-31.356q2.852-7.68,6.288-15.058a2.757,2.757,0,0,0-1.336-3.662,2.755,2.755,0,0,0-3.661,1.336q-3.525,7.573-6.458,15.466a2.755,2.755,0,0,0,1.625,3.541,2.753,2.753,0,0,0,3.543-1.623m13.755-29.565q4.029-7.114,8.6-13.865a2.757,2.757,0,0,0-.737-3.828,2.756,2.756,0,0,0-3.827.739q-4.688,6.928-8.829,14.237a2.756,2.756,0,0,0,1.04,3.756,2.757,2.757,0,0,0,3.756-1.039m18.268-27Q86-423.076,91.577-429.03a2.754,2.754,0,0,0-.126-3.894,2.756,2.756,0,0,0-3.895.124q-5.726,6.11-10.963,12.663a2.755,2.755,0,0,0,.434,3.872A2.754,2.754,0,0,0,80.9-416.7m22.293-23.78q6.026-5.49,12.482-10.5a2.756,2.756,0,0,0,.489-3.866,2.758,2.758,0,0,0-3.867-.488q-6.622,5.134-12.816,10.775a2.757,2.757,0,0,0-.182,3.894,2.757,2.757,0,0,0,3.894.182m25.752-19.969q6.8-4.465,13.976-8.392a2.755,2.755,0,0,0,1.094-3.74,2.755,2.755,0,0,0-3.741-1.094q-7.358,4.031-14.352,8.615a2.758,2.758,0,0,0-.793,3.817,2.755,2.755,0,0,0,3.816.794m28.571-15.639q7.41-3.32,15.123-6.063a2.754,2.754,0,0,0,1.674-3.519,2.755,2.755,0,0,0-3.519-1.673q-7.916,2.811-15.531,6.223a2.757,2.757,0,0,0-1.389,3.643,2.758,2.758,0,0,0,3.642,1.389m30.693-10.9q7.835-2.1,15.908-3.574a2.759,2.759,0,0,0,2.214-3.208,2.759,2.759,0,0,0-3.208-2.216q-8.285,1.517-16.337,3.671a2.758,2.758,0,0,0-1.951,3.376,2.758,2.758,0,0,0,3.374,1.951m32.048-5.87q8.05-.823,16.275-1.014a2.756,2.756,0,0,0,2.692-2.819,2.753,2.753,0,0,0-2.817-2.69q-8.439.19-16.707,1.039a2.756,2.756,0,0,0-2.463,3.02,2.76,2.76,0,0,0,3.022,2.464h0m32.584-.75q8.206.455,16.232,1.543a2.759,2.759,0,0,0,3.1-2.362,2.756,2.756,0,0,0-2.362-3.1q-8.239-1.116-16.667-1.585a2.753,2.753,0,0,0-2.9,2.6,2.756,2.756,0,0,0,2.6,2.9m32.29,4.368q8.011,1.744,15.78,4.1a2.756,2.756,0,0,0,3.437-1.838,2.756,2.756,0,0,0-1.838-3.436q-7.974-2.418-16.207-4.211a2.755,2.755,0,0,0-3.279,2.105,2.756,2.756,0,0,0,2.108,3.279m31.2,9.455q7.623,2.993,14.937,6.57a2.76,2.76,0,0,0,3.687-1.268,2.756,2.756,0,0,0-1.268-3.685q-7.507-3.667-15.339-6.749a2.757,2.757,0,0,0-3.574,1.557,2.758,2.758,0,0,0,1.557,3.574h0m29.3,14.308q7.036,4.163,13.7,8.857a2.754,2.754,0,0,0,3.839-.667,2.753,2.753,0,0,0-.667-3.839q-6.837-4.816-14.069-9.094a2.758,2.758,0,0,0-3.775.967,2.757,2.757,0,0,0,.97,3.775m26.657,18.77q6.279,5.213,12.131,10.9a2.758,2.758,0,0,0,3.9-.052,2.756,2.756,0,0,0-.055-3.9q-6-5.841-12.454-11.2a2.755,2.755,0,0,0-3.88.361,2.755,2.755,0,0,0,.361,3.88m23.361,22.733q5.374,6.126,10.26,12.674a2.754,2.754,0,0,0,3.855.559,2.754,2.754,0,0,0,.562-3.855q-5.01-6.717-10.536-13.013a2.756,2.756,0,0,0-3.888-.256,2.759,2.759,0,0,0-.254,3.891m19.484,26.117q4.332,6.887,8.124,14.132a2.758,2.758,0,0,0,3.72,1.163,2.757,2.757,0,0,0,1.163-3.72q-3.89-7.432-8.345-14.509a2.754,2.754,0,0,0-3.8-.865,2.755,2.755,0,0,0-.865,3.8h0m15.1,28.859q3.179,7.47,5.773,15.232a2.755,2.755,0,0,0,3.486,1.742,2.755,2.755,0,0,0,1.742-3.486q-2.662-7.97-5.931-15.645a2.757,2.757,0,0,0-3.616-1.458,2.757,2.757,0,0,0-1.455,3.616M440.545-338.1q1.943,7.871,3.274,15.97a2.758,2.758,0,0,0,3.164,2.276,2.758,2.758,0,0,0,2.276-3.166q-1.364-8.313-3.365-16.4a2.753,2.753,0,0,0-3.335-2.015,2.754,2.754,0,0,0-2.014,3.337m5.266,32.152q.674,8.065.711,16.3a2.757,2.757,0,0,0,2.77,2.742,2.753,2.753,0,0,0,2.742-2.767q-.037-8.445-.727-16.725a2.756,2.756,0,0,0-2.976-2.519,2.759,2.759,0,0,0-2.519,2.974m.714,17.232q0,8.226-.637,16.3a2.756,2.756,0,0,0,2.533,2.962,2.758,2.758,0,0,0,2.963-2.533q.649-8.276.653-16.725a2.757,2.757,0,0,0-2.756-2.756,2.757,2.757,0,0,0-2.756,2.756" transform="translate(-30.741 681.715)" fill="#fab743"/>
      <path id="path18" d="M883.069-67.778q-1.1,8.143-2.734,16.108a2.755,2.755,0,0,0,2.147,3.252,2.754,2.754,0,0,0,3.252-2.147q1.67-8.144,2.8-16.477a2.753,2.753,0,0,0-2.362-3.1,2.755,2.755,0,0,0-3.1,2.362h0m-6.556,31.992q-2.191,7.9-4.9,15.587a2.757,2.757,0,0,0,1.684,3.514,2.757,2.757,0,0,0,3.516-1.684q2.765-7.854,5.01-15.945a2.755,2.755,0,0,0-1.921-3.392,2.753,2.753,0,0,0-3.39,1.921M865.655-4.962q-3.245,7.532-6.98,14.791a2.755,2.755,0,1,0,4.9,2.522q3.82-7.424,7.143-15.132A2.756,2.756,0,0,0,869.276-6.4a2.758,2.758,0,0,0-3.621,1.441M850.7,24.109q-4.233,7.011-8.918,13.708a2.756,2.756,0,0,0,4.517,3.158q4.787-6.841,9.119-14.016a2.756,2.756,0,0,0-4.718-2.85m-18.74,26.776q-5.13,6.37-10.676,12.376A2.756,2.756,0,0,0,825.337,67Q831,60.862,836.258,54.344a2.757,2.757,0,0,0-4.294-3.459M809.8,74.891q-5.932,5.614-12.239,10.825a2.756,2.756,0,0,0,3.511,4.25q6.444-5.324,12.517-11.073a2.756,2.756,0,1,0-3.789-4m-25.174,20.8Q778,100.454,771.05,104.77a2.757,2.757,0,0,0,2.907,4.685q7.106-4.417,13.887-9.288a2.755,2.755,0,0,0-3.216-4.475m-27.735,17.215q-7.193,3.815-14.669,7.158a2.755,2.755,0,1,0,2.246,5.031q7.643-3.413,15.006-7.319a2.756,2.756,0,0,0-2.582-4.87m-29.788,13.3q-7.643,2.8-15.521,5.1a2.756,2.756,0,0,0,1.543,5.291q8.052-2.345,15.876-5.22a2.755,2.755,0,1,0-1.9-5.172m-31.353,9.133q-7.941,1.736-16.069,2.946a2.755,2.755,0,1,0,.807,5.45q8.313-1.23,16.438-3.012a2.756,2.756,0,1,0-1.177-5.385m-32.3,4.795q-8.09.646-16.323.752a2.756,2.756,0,1,0,.069,5.512q8.416-.106,16.695-.772a2.755,2.755,0,1,0-.441-5.492h0m-32.662.42q-8.218-.442-16.279-1.427a2.755,2.755,0,0,0-.667,5.47q8.247,1,16.648,1.461a2.756,2.756,0,0,0,.3-5.5h0m-32.42-3.952q-8.065-1.542-15.934-3.616a2.757,2.757,0,0,0-1.4,5.332q8.048,2.117,16.3,3.7a2.756,2.756,0,0,0,1.036-5.415m-31.585-8.306q-7.78-2.629-15.314-5.76a2.756,2.756,0,0,0-2.114,5.091q7.705,3.2,15.667,5.892a2.755,2.755,0,0,0,1.761-5.222h0m-30.2-12.548q-7.337-3.654-14.383-7.782a2.756,2.756,0,0,0-2.786,4.756q7.205,4.221,14.713,7.959a2.755,2.755,0,1,0,2.455-4.932m-28.2-16.521q-6.767-4.605-13.2-9.651a2.756,2.756,0,0,0-3.4,4.338q6.573,5.156,13.5,9.869a2.756,2.756,0,1,0,3.1-4.556M482.669,79.058q-6.077-5.469-11.776-11.335a2.756,2.756,0,1,0-3.952,3.842q5.82,5.994,12.043,11.591a2.755,2.755,0,1,0,3.685-4.1m-22.76-23.433q-5.283-6.225-10.141-12.806a2.756,2.756,0,1,0-4.434,3.274q4.969,6.726,10.373,13.1a2.756,2.756,0,1,0,4.2-3.566m-19.4-26.266q-4.39-6.87-8.323-14.049a2.755,2.755,0,0,0-4.834,2.646q4.018,7.342,8.51,14.372a2.756,2.756,0,0,0,4.644-2.968h0M424.843.732Q421.428-6.655,418.5-14.3a2.755,2.755,0,0,0-3.558-1.59,2.755,2.755,0,0,0-1.59,3.558q2.989,7.821,6.485,15.38a2.755,2.755,0,1,0,5-2.312M413.2-29.756q-2.377-7.784-4.238-15.78a2.753,2.753,0,0,0-3.307-2.059,2.755,2.755,0,0,0-2.061,3.307q1.9,8.177,4.335,16.141a2.757,2.757,0,0,0,3.442,1.83,2.753,2.753,0,0,0,1.83-3.439m-7.391-31.811q-1.3-8.015-2.061-16.207a2.755,2.755,0,0,0-3-2.489,2.755,2.755,0,0,0-2.489,3q.777,8.375,2.105,16.579a2.756,2.756,0,0,0,3.161,2.279,2.757,2.757,0,0,0,2.282-3.161m-3.023-32.519q-.083-3.129-.083-6.281,0-5.06.207-10.064a2.756,2.756,0,0,0-2.64-2.866,2.758,2.758,0,0,0-2.866,2.64q-.211,5.122-.209,10.29,0,3.22.08,6.421a2.753,2.753,0,0,0,2.825,2.684,2.756,2.756,0,0,0,2.687-2.825h0m1.342-32.637q.885-8.172,2.312-16.174a2.757,2.757,0,0,0-2.229-3.2,2.759,2.759,0,0,0-3.2,2.232q-1.455,8.181-2.367,16.543a2.759,2.759,0,0,0,2.444,3.037,2.755,2.755,0,0,0,3.037-2.442m5.718-32.152q1.984-7.966,4.489-15.711a2.758,2.758,0,0,0-1.777-3.47,2.757,2.757,0,0,0-3.47,1.775q-2.559,7.924-4.588,16.072a2.752,2.752,0,0,0,2.006,3.34,2.753,2.753,0,0,0,3.34-2.006h0m10.045-31.1q3.051-7.614,6.595-14.97a2.759,2.759,0,0,0-1.287-3.679,2.754,2.754,0,0,0-3.679,1.287q-3.621,7.519-6.746,15.314a2.755,2.755,0,0,0,1.535,3.583,2.755,2.755,0,0,0,3.583-1.535m14.19-29.454q4.047-7.122,8.557-13.934a2.755,2.755,0,0,0-.777-3.82,2.754,2.754,0,0,0-3.817.777q-4.613,6.965-8.755,14.253a2.754,2.754,0,0,0,1.033,3.756,2.757,2.757,0,0,0,3.759-1.033m18.037-27.255q4.965-6.5,10.357-12.649a2.756,2.756,0,0,0-.256-3.889,2.756,2.756,0,0,0-3.889.256q-5.51,6.283-10.591,12.936a2.757,2.757,0,0,0,.518,3.864,2.754,2.754,0,0,0,3.861-.518m21.537-24.568q5.787-5.771,11.955-11.142a2.754,2.754,0,0,0,.27-3.888,2.757,2.757,0,0,0-3.889-.267q-6.3,5.49-12.228,11.393a2.755,2.755,0,0,0-.005,3.9,2.758,2.758,0,0,0,3.9.008M498.286-292.7q6.5-4.936,13.338-9.428a2.757,2.757,0,0,0,.791-3.817,2.757,2.757,0,0,0-3.817-.791q-6.99,4.6-13.644,9.643a2.755,2.755,0,0,0-.529,3.861,2.758,2.758,0,0,0,3.861.532h0m27.28-17.932q7.1-4.006,14.482-7.537a2.755,2.755,0,0,0,1.3-3.674,2.757,2.757,0,0,0-3.676-1.3q-7.552,3.609-14.812,7.708a2.756,2.756,0,0,0-1.044,3.756,2.753,2.753,0,0,0,3.754,1.044h0M555-324.708q7.569-3.005,15.383-5.506a2.756,2.756,0,0,0,1.786-3.464,2.76,2.76,0,0,0-3.467-1.786q-7.986,2.559-15.736,5.636a2.754,2.754,0,0,0-1.543,3.577A2.754,2.754,0,0,0,555-324.708h0m31.105-9.951q7.9-1.943,15.987-3.362a2.755,2.755,0,0,0,2.24-3.189,2.76,2.76,0,0,0-3.191-2.24q-8.276,1.451-16.353,3.439a2.756,2.756,0,0,0-2.017,3.335,2.751,2.751,0,0,0,3.335,2.017m32.166-5.63q8.073-.856,16.3-1.174a2.758,2.758,0,0,0,2.648-2.858,2.757,2.757,0,0,0-2.861-2.648q-8.408.322-16.667,1.2a2.755,2.755,0,0,0-2.45,3.031,2.757,2.757,0,0,0,3.031,2.45m32.643-1.257q8.226.236,16.309,1.009a2.759,2.759,0,0,0,3.007-2.48,2.758,2.758,0,0,0-2.483-3.007q-8.263-.79-16.678-1.031a2.754,2.754,0,0,0-2.83,2.679,2.751,2.751,0,0,0,2.676,2.83m32.511,3.111q8.106,1.335,16.022,3.2a2.759,2.759,0,0,0,3.315-2.053,2.756,2.756,0,0,0-2.053-3.312q-8.094-1.906-16.389-3.271a2.753,2.753,0,0,0-3.166,2.271,2.755,2.755,0,0,0,2.271,3.167m31.791,7.479q7.846,2.422,15.46,5.357a2.756,2.756,0,0,0,3.563-1.582,2.756,2.756,0,0,0-1.582-3.561q-7.784-3-15.818-5.481a2.755,2.755,0,0,0-3.445,1.822,2.754,2.754,0,0,0,1.822,3.445M745.735-319.2q7.428,3.46,14.581,7.4a2.756,2.756,0,0,0,3.745-1.083,2.757,2.757,0,0,0-1.083-3.742q-7.312-4.03-14.917-7.576a2.753,2.753,0,0,0-3.663,1.334,2.757,2.757,0,0,0,1.337,3.663h0m28.625,15.783q6.883,4.431,13.443,9.309a2.758,2.758,0,0,0,3.855-.568,2.757,2.757,0,0,0-.568-3.855q-6.7-4.985-13.749-9.521a2.759,2.759,0,0,0-3.809.827,2.756,2.756,0,0,0,.827,3.809m26.225,19.5q6.217,5.308,12.065,11.026a2.755,2.755,0,0,0,3.9-.044,2.755,2.755,0,0,0-.044-3.9q-5.977-5.841-12.338-11.277a2.755,2.755,0,0,0-3.886.306,2.756,2.756,0,0,0,.306,3.886h0m23.358,22.838q5.44,6.093,10.47,12.545a2.755,2.755,0,0,0,3.869.479,2.757,2.757,0,0,0,.48-3.866q-5.138-6.6-10.709-12.828a2.753,2.753,0,0,0-3.891-.218,2.752,2.752,0,0,0-.218,3.888m20.071,25.762q4.564,6.754,8.681,13.832a2.755,2.755,0,0,0,3.767.995,2.753,2.753,0,0,0,1-3.767q-4.2-7.23-8.882-14.146a2.754,2.754,0,0,0-3.825-.741,2.755,2.755,0,0,0-.739,3.828h0M860.418-207.1q3.609,7.3,6.727,14.868a2.758,2.758,0,0,0,3.6,1.5,2.758,2.758,0,0,0,1.5-3.6q-3.191-7.743-6.884-15.209a2.756,2.756,0,0,0-3.69-1.251,2.76,2.76,0,0,0-1.251,3.693h0m12.434,30.176q2.58,7.722,4.649,15.664a2.756,2.756,0,0,0,3.359,1.973,2.755,2.755,0,0,0,1.976-3.359q-2.112-8.127-4.756-16.025a2.759,2.759,0,0,0-3.489-1.739,2.757,2.757,0,0,0-1.739,3.486m8.218,31.607q1.5,7.982,2.48,16.149a2.756,2.756,0,0,0,3.062,2.411,2.759,2.759,0,0,0,2.411-3.062q-.992-8.35-2.535-16.518a2.756,2.756,0,0,0-3.219-2.2,2.756,2.756,0,0,0-2.2,3.219m3.861,32.428q.318,6.221.32,12.525,0,8.23-.543,16.331a2.755,2.755,0,0,0,2.566,2.932,2.755,2.755,0,0,0,2.932-2.566q.554-8.28.557-16.7,0-6.444-.325-12.806a2.757,2.757,0,0,0-2.894-2.61,2.755,2.755,0,0,0-2.613,2.891" transform="translate(360.219 844.223)" fill="#fab743"/>
      <path id="path20" d="M850.887-456.2V107.676a35.211,35.211,0,0,1-35.233,35.195H198.606a35.208,35.208,0,0,1-35.231-35.195V-456.2a35.217,35.217,0,0,1,35.231-35.233H815.654A35.219,35.219,0,0,1,850.887-456.2" transform="translate(110.764 690.189)" fill="#ee1a98"/>
      <path id="path22" d="M163.376-467.04V94.838a22.006,22.006,0,0,0,22.005,22.008H828.92A21.968,21.968,0,0,0,850.887,94.88V-467.04H163.376" transform="translate(110.764 716.214)" fill="#a08bcd"/>
      <path id="path24" d="M194.125-474.252a6.683,6.683,0,0,1-6.68,6.683,6.682,6.682,0,0,1-6.683-6.683,6.682,6.682,0,0,1,6.683-6.683,6.683,6.683,0,0,1,6.68,6.683" transform="translate(129.313 701.39)" fill="#fab743"/>
      <path id="path26" d="M214.248-474.252a6.682,6.682,0,0,1-6.68,6.683,6.684,6.684,0,0,1-6.683-6.683,6.684,6.684,0,0,1,6.683-6.683,6.682,6.682,0,0,1,6.68,6.683" transform="translate(150.782 701.39)" fill="#fab743"/>
      <path id="path28" d="M234.372-474.252a6.682,6.682,0,0,1-6.683,6.683,6.682,6.682,0,0,1-6.68-6.683,6.682,6.682,0,0,1,6.68-6.683,6.682,6.682,0,0,1,6.683,6.683" transform="translate(172.252 701.39)" fill="#fab743"/>
      <path id="path30" d="M254.493-474.252a6.679,6.679,0,0,1-6.68,6.68,6.682,6.682,0,0,1-6.683-6.68,6.684,6.684,0,0,1,6.683-6.683,6.682,6.682,0,0,1,6.68,6.683" transform="translate(193.719 701.39)" fill="#fab743"/>
      <path id="path32" d="M480.361-473.575l6.289-6.115a1.148,1.148,0,0,0,.083-1.518.927.927,0,0,0-1.389-.091l-6.462,6.286-6.46-6.286a.924.924,0,0,0-1.386.091,1.148,1.148,0,0,0,.08,1.518l6.286,6.115-6.286,6.115a1.148,1.148,0,0,0-.08,1.518.939.939,0,0,0,.733.361l.653-.27,6.46-6.286,6.462,6.286.653.27a.944.944,0,0,0,.736-.361,1.148,1.148,0,0,0-.083-1.518l-6.289-6.115" transform="translate(438.734 700.713)" fill="#fab743"/>
      <path id="path34" d="M120.861-369.027V-500.563a29.2,29.2,0,0,1,29.2-29.2h113.1a505.19,505.19,0,0,0-142.3,160.731M156.844-466.7a2.753,2.753,0,0,0-2.748,2.6,2.756,2.756,0,0,0,2.6,2.9q8.206.455,16.232,1.543a2.832,2.832,0,0,0,.372.025,2.759,2.759,0,0,0,2.728-2.386,2.755,2.755,0,0,0-2.362-3.1q-8.239-1.116-16.667-1.585c-.052,0-.1-.005-.154-.005m-16.52-.267a.507.507,0,0,0-.064,0q-8.439.19-16.707,1.039a2.756,2.756,0,0,0-2.463,3.02,2.758,2.758,0,0,0,2.738,2.478c.094,0,.187-.005.283-.014h0q8.05-.822,16.275-1.014a2.756,2.756,0,0,0,2.692-2.819,2.756,2.756,0,0,0-2.754-2.692" transform="translate(65.406 649.301)" fill="#e6e6e4"/>
      <path id="path36" d="M208.733-315.586H150.059a29.2,29.2,0,0,1-29.2-29.2v-24.243a505.192,505.192,0,0,1,142.3-160.731h52.215a29.2,29.2,0,0,1,29.2,29.2v50.018H243.964a35.218,35.218,0,0,0-12.1,2.13q-4.77-2.158-9.665-4.081a2.76,2.76,0,0,0-1.009-.19,2.756,2.756,0,0,0-2.566,1.747,2.758,2.758,0,0,0,1.557,3.574h0q2.608,1.025,5.184,2.119a35.19,35.19,0,0,0-16.631,29.934v99.725M189.566-462.268a2.756,2.756,0,0,0-2.69,2.169,2.757,2.757,0,0,0,2.108,3.279q8.011,1.745,15.78,4.1a2.781,2.781,0,0,0,.8.119,2.758,2.758,0,0,0,2.637-1.957,2.756,2.756,0,0,0-1.838-3.436q-7.974-2.418-16.207-4.211a2.7,2.7,0,0,0-.59-.063" transform="translate(65.406 649.301)" fill="#c8b7e1"/>
      <path id="path38" d="M225.254-477.659q-2.575-1.1-5.184-2.119h0a2.758,2.758,0,0,1-1.557-3.574,2.756,2.756,0,0,1,2.566-1.747,2.761,2.761,0,0,1,1.009.19q4.894,1.922,9.665,4.081a35.033,35.033,0,0,0-6.5,3.169m-19.8-7.355a2.78,2.78,0,0,1-.8-.119q-7.763-2.352-15.78-4.1a2.756,2.756,0,0,1-2.108-3.279,2.756,2.756,0,0,1,2.69-2.169,2.7,2.7,0,0,1,.59.063q8.226,1.79,16.207,4.211a2.757,2.757,0,0,1,1.838,3.437,2.758,2.758,0,0,1-2.637,1.957m-32.265-7.019a2.832,2.832,0,0,1-.372-.025q-8.024-1.087-16.232-1.543a2.756,2.756,0,0,1-2.6-2.9,2.753,2.753,0,0,1,2.748-2.6c.052,0,.1,0,.154.005q8.425.467,16.667,1.585a2.755,2.755,0,0,1,2.362,3.1,2.759,2.759,0,0,1-2.728,2.386m-49.47-.8a2.758,2.758,0,0,1-2.738-2.478,2.756,2.756,0,0,1,2.463-3.02q8.265-.843,16.707-1.039a.508.508,0,0,1,.064,0,2.756,2.756,0,0,1,2.754,2.693,2.756,2.756,0,0,1-2.692,2.819q-8.221.19-16.275,1.014h0c-.1.008-.19.014-.283.014" transform="translate(65.517 681.714)" fill="#f9ac36"/>
      <path id="path40" d="M163.376-356.475h0V-456.2a35.19,35.19,0,0,1,16.631-29.934,35.025,35.025,0,0,1,6.5-3.169,35.216,35.216,0,0,1,12.1-2.13H299.213v50.418H163.376v84.541m125.8-113.259a6.682,6.682,0,0,0-6.68,6.683,6.682,6.682,0,0,0,6.68,6.683,6.682,6.682,0,0,0,6.683-6.683,6.682,6.682,0,0,0-6.683-6.683m-41.591,0a6.684,6.684,0,0,0-6.683,6.683,6.684,6.684,0,0,0,6.683,6.683,6.682,6.682,0,0,0,6.68-6.683,6.681,6.681,0,0,0-6.68-6.683m-41.591,0a6.682,6.682,0,0,0-6.683,6.683,6.682,6.682,0,0,0,6.683,6.683,6.683,6.683,0,0,0,6.68-6.683,6.683,6.683,0,0,0-6.68-6.683" transform="translate(110.764 690.189)" fill="#e51093"/>
      <path id="path42" d="M270.018-382.5H163.376V-467.04H299.213V-411.7a29.2,29.2,0,0,1-29.2,29.2" transform="translate(110.764 716.214)" fill="#967fc7"/>
      <path id="path44" d="M187.445-467.569a6.682,6.682,0,0,1-6.683-6.683,6.682,6.682,0,0,1,6.683-6.683,6.683,6.683,0,0,1,6.68,6.683,6.683,6.683,0,0,1-6.68,6.683" transform="translate(129.313 701.39)" fill="#f9ac36"/>
      <path id="path46" d="M207.568-467.569a6.684,6.684,0,0,1-6.683-6.683,6.684,6.684,0,0,1,6.683-6.683,6.682,6.682,0,0,1,6.68,6.683,6.682,6.682,0,0,1-6.68,6.683" transform="translate(150.782 701.39)" fill="#f9ac36"/>
      <path id="path48" d="M227.689-467.569a6.682,6.682,0,0,1-6.68-6.683,6.682,6.682,0,0,1,6.68-6.683,6.682,6.682,0,0,1,6.683,6.683,6.682,6.682,0,0,1-6.683,6.683" transform="translate(172.252 701.39)" fill="#f9ac36"/>
      <path id="path50" d="M589.438-147.661H570.266A503.906,503.906,0,0,0,584.844-268.37a503.635,503.635,0,0,0-15.876-125.853h20.47a29.2,29.2,0,0,1,29.2,29.2v126.622a2.753,2.753,0,0,0-1.62.926,2.755,2.755,0,0,0,.306,3.886h0q.657.562,1.314,1.13v55.6a29.2,29.2,0,0,1-29.2,29.2m3.153-110.506a2.753,2.753,0,0,0-2.32,1.265,2.756,2.756,0,0,0,.827,3.809q6.883,4.431,13.443,9.309a2.741,2.741,0,0,0,1.642.543,2.75,2.75,0,0,0,2.213-1.111,2.757,2.757,0,0,0-.568-3.855q-6.7-4.985-13.749-9.521a2.757,2.757,0,0,0-1.488-.438" transform="translate(543.482 793.901)" fill="#e6e6e4"/>
      <path id="path52" d="M648.105-147.661h-152.1V-287.581c.22-.041.441-.08.661-.119a2.756,2.756,0,0,0,2.24-3.188,2.756,2.756,0,0,0-2.712-2.282q-.1,0-.19.008V-394.223h150.8A503.629,503.629,0,0,1,662.684-268.37a503.906,503.906,0,0,1-14.578,120.708m-7.793-121.215q7.428,3.46,14.581,7.4a2.728,2.728,0,0,0,1.328.344,2.757,2.757,0,0,0,2.417-1.428,2.757,2.757,0,0,0-1.083-3.742q-7.312-4.03-14.917-7.576a2.734,2.734,0,0,0-1.163-.259,2.759,2.759,0,0,0-2.5,1.593,2.758,2.758,0,0,0,1.337,3.663h0M610.6-286.023a2.755,2.755,0,0,0-2.632,1.946,2.754,2.754,0,0,0,1.822,3.445q7.846,2.422,15.46,5.357a2.721,2.721,0,0,0,.989.185,2.755,2.755,0,0,0,2.574-1.766,2.756,2.756,0,0,0-1.582-3.561q-7.784-3-15.818-5.481a2.774,2.774,0,0,0-.813-.124m-32.158-7.565a2.754,2.754,0,0,0-2.714,2.309A2.754,2.754,0,0,0,578-288.112q8.106,1.335,16.022,3.2a2.778,2.778,0,0,0,.634.072,2.757,2.757,0,0,0,2.681-2.125,2.756,2.756,0,0,0-2.053-3.312q-8.094-1.906-16.389-3.271a2.807,2.807,0,0,0-.452-.039m-49.4-3.062c-.036,0-.072,0-.107,0q-8.408.322-16.667,1.2a2.755,2.755,0,0,0-2.45,3.031,2.758,2.758,0,0,0,2.736,2.464,2.648,2.648,0,0,0,.295-.014q8.073-.856,16.3-1.174A2.758,2.758,0,0,0,531.8-294a2.757,2.757,0,0,0-2.753-2.651m16.527-.083a2.755,2.755,0,0,0-2.753,2.679,2.751,2.751,0,0,0,2.676,2.83q8.226.236,16.309,1.009c.088.008.176.011.265.011a2.757,2.757,0,0,0,2.742-2.491,2.758,2.758,0,0,0-2.483-3.007q-8.263-.789-16.678-1.031h-.077" transform="translate(465.643 793.901)" fill="#c8b7e1"/>
      <path id="path54" d="M696.475-282.786q-.657-.566-1.314-1.13h0a2.755,2.755,0,0,1-.306-3.886,2.753,2.753,0,0,1,1.62-.926v5.942m-12.453-10.778a2.743,2.743,0,0,1-1.642-.543q-6.556-4.878-13.443-9.309a2.756,2.756,0,0,1-.827-3.809,2.753,2.753,0,0,1,2.32-1.265,2.757,2.757,0,0,1,1.488.438q7.044,4.535,13.749,9.521a2.757,2.757,0,0,1,.568,3.855,2.75,2.75,0,0,1-2.213,1.111m-27.8-17.885a2.728,2.728,0,0,1-1.328-.344q-7.147-3.939-14.581-7.4h0a2.758,2.758,0,0,1-1.337-3.663,2.76,2.76,0,0,1,2.5-1.593,2.734,2.734,0,0,1,1.163.259q7.6,3.539,14.917,7.576a2.757,2.757,0,0,1,1.083,3.742,2.757,2.757,0,0,1-2.417,1.428m-29.978-13.964a2.722,2.722,0,0,1-.989-.185q-7.61-2.931-15.46-5.357a2.754,2.754,0,0,1-1.822-3.445,2.755,2.755,0,0,1,2.632-1.946,2.774,2.774,0,0,1,.813.124q8.032,2.48,15.818,5.481a2.756,2.756,0,0,1,1.582,3.561,2.755,2.755,0,0,1-2.574,1.766m-31.585-9.75a2.78,2.78,0,0,1-.634-.072q-7.912-1.864-16.022-3.2a2.755,2.755,0,0,1-2.271-3.167,2.754,2.754,0,0,1,2.715-2.309,2.809,2.809,0,0,1,.452.039q8.288,1.36,16.389,3.271a2.756,2.756,0,0,1,2.053,3.312,2.757,2.757,0,0,1-2.682,2.125m-98.65-2.739v-5.581c.063-.005.127-.008.19-.008a2.756,2.756,0,0,1,2.712,2.282,2.756,2.756,0,0,1-2.24,3.188c-.221.039-.441.077-.661.119m16.546-2.373a2.758,2.758,0,0,1-2.737-2.464,2.755,2.755,0,0,1,2.45-3.031q8.259-.876,16.667-1.2c.036,0,.072,0,.107,0a2.757,2.757,0,0,1,2.753,2.651,2.758,2.758,0,0,1-2.648,2.858q-8.222.314-16.3,1.174a2.635,2.635,0,0,1-.295.014m49.511-.251c-.088,0-.176,0-.265-.011q-8.082-.773-16.309-1.009a2.751,2.751,0,0,1-2.676-2.83,2.755,2.755,0,0,1,2.753-2.679h.077q8.412.24,16.678,1.031a2.758,2.758,0,0,1,2.483,3.007,2.756,2.756,0,0,1-2.742,2.491" transform="translate(465.643 844.224)" fill="#f9ac36"/>
      <path id="path56" d="M525.468-147.661H497.593a29.2,29.2,0,0,1-29.2-29.2V-365.028a29.2,29.2,0,0,1,29.2-29.2h27.875v246.562" transform="translate(436.183 793.901)" fill="#967fc7"/>
      <path id="path58" d="M527.291-103.125h-46.4a506.111,506.111,0,0,0,75.6-71.15v41.955a29.2,29.2,0,0,1-29.2,29.2" transform="translate(449.517 1028.559)" fill="#e6e6e4"/>
      <path id="path60" d="M574.811-12.583H488.2a2.75,2.75,0,0,0-.912-2.152Q481.212-20.2,475.513-26.07a2.742,2.742,0,0,0-1.976-.835,2.755,2.755,0,0,0-1.921.777,2.759,2.759,0,0,0-.055,3.9q4.816,4.956,9.907,9.645H422.061a29.2,29.2,0,0,1-29.2-29.2v-63.177h25.566q2.8,7.217,6.032,14.206a2.75,2.75,0,0,0,2.5,1.6,2.784,2.784,0,0,0,1.155-.254,2.758,2.758,0,0,0,1.345-3.66q-2.712-5.862-5.112-11.894H584.085a21.968,21.968,0,0,0,21.967-21.967V-259.142h15.157a29.2,29.2,0,0,1,29.2,29.2V-83.733a506.105,506.105,0,0,1-75.6,71.15M452.166-52.094a2.743,2.743,0,0,0-1.634.537,2.758,2.758,0,0,0-.579,3.855q4.969,6.726,10.373,13.1a2.754,2.754,0,0,0,2.1.973,2.752,2.752,0,0,0,1.783-.653,2.758,2.758,0,0,0,.317-3.886q-5.283-6.225-10.141-12.806a2.75,2.75,0,0,0-2.221-1.119M434.39-79.916a2.723,2.723,0,0,0-1.32.339,2.754,2.754,0,0,0-1.094,3.74q4.018,7.342,8.51,14.372a2.758,2.758,0,0,0,2.326,1.27,2.724,2.724,0,0,0,1.48-.433,2.752,2.752,0,0,0,.838-3.806h0q-4.39-6.87-8.323-14.049a2.755,2.755,0,0,0-2.42-1.433" transform="translate(355.599 938.016)" fill="#c8b7e1"/>
      <path id="path62" d="M475-92.171h-6.733q-5.089-4.684-9.907-9.645a2.759,2.759,0,0,1,.055-3.9,2.755,2.755,0,0,1,1.921-.777,2.742,2.742,0,0,1,1.976.835q5.7,5.862,11.776,11.335A2.751,2.751,0,0,1,475-92.171m-25.773-21.046a2.753,2.753,0,0,1-2.1-.973q-5.4-6.37-10.373-13.1a2.758,2.758,0,0,1,.579-3.855,2.743,2.743,0,0,1,1.634-.537,2.75,2.75,0,0,1,2.221,1.119q4.857,6.577,10.142,12.806a2.759,2.759,0,0,1-.317,3.886,2.753,2.753,0,0,1-1.783.653m-19.616-26.566a2.758,2.758,0,0,1-2.326-1.27q-4.489-7.027-8.51-14.372a2.754,2.754,0,0,1,1.094-3.74,2.722,2.722,0,0,1,1.32-.339,2.755,2.755,0,0,1,2.42,1.433q3.927,7.176,8.323,14.049h0a2.752,2.752,0,0,1-.838,3.806,2.723,2.723,0,0,1-1.48.433m-15.849-28.953a2.75,2.75,0,0,1-2.5-1.6q-3.233-6.986-6.033-14.206h5.922q2.4,6.027,5.112,11.894a2.758,2.758,0,0,1-1.345,3.66,2.784,2.784,0,0,1-1.155.254" transform="translate(368.796 1017.604)" fill="#f9ac36"/>
      <path id="path64" d="M584.085-104.956H392.863V-229.947a29.2,29.2,0,0,1,29.2-29.2h183.99v132.219a21.968,21.968,0,0,1-21.967,21.967" transform="translate(355.599 938.016)" fill="#967fc7"/>
      <path id="path66" d="M144.312-219.125a29.21,29.21,0,0,1,27.156-18.448h12.247V-219.7H150.132a29.359,29.359,0,0,0-5.82.579" transform="translate(90.425 961.028)" fill="#c8b7e1"/>
      <path id="path68" d="M379.471-157.557H358.136v-32.951a29.2,29.2,0,0,0-29.2-29.2H163.376v-17.869h186.9a29.2,29.2,0,0,1,29.2,29.2v50.818" transform="translate(110.764 961.028)" fill="#967fc7"/>
      <path id="path70" d="M144.922-137.3H90.909a29.2,29.2,0,0,1-29.2-29.2V-341.529a29.2,29.2,0,0,1,29.2-29.2h35.2a507,507,0,0,0-5.9,77.285,507.74,507.74,0,0,0,2.991,55.155,2.746,2.746,0,0,0-1.537,1.461,2.754,2.754,0,0,0,1.4,3.635l.755.331a500.443,500.443,0,0,0,21.1,95.558M95.133-254.205a2.753,2.753,0,0,0-2.313,1.254,2.756,2.756,0,0,0,.809,3.811q7.015,4.555,14.4,8.562a2.742,2.742,0,0,0,1.31.333,2.758,2.758,0,0,0,2.425-1.444,2.757,2.757,0,0,0-1.11-3.737q-7.189-3.894-14.023-8.336a2.752,2.752,0,0,0-1.5-.444M68.939-274.339a2.743,2.743,0,0,0-2.045.909,2.754,2.754,0,0,0,.2,3.891q6.212,5.61,12.863,10.726a2.755,2.755,0,0,0,1.678.57,2.753,2.753,0,0,0,2.186-1.078,2.755,2.755,0,0,0-.505-3.864q-6.473-4.977-12.529-10.445a2.741,2.741,0,0,0-1.846-.711" transform="translate(2.301 818.971)" fill="#e6e6e4"/>
      <path id="path72" d="M241.642-137.3H114.725a500.442,500.442,0,0,1-21.1-95.558q7.276,3.187,14.831,5.834a2.769,2.769,0,0,0,.91.154,2.757,2.757,0,0,0,2.6-1.846,2.757,2.757,0,0,0-1.691-3.511q-7.733-2.7-15.174-6a2.759,2.759,0,0,0-1.114-.237,2.771,2.771,0,0,0-.984.182,507.74,507.74,0,0,1-2.991-55.155,507,507,0,0,1,5.9-77.285H241.642v141.961a2.763,2.763,0,0,0-2.263-1.182,2.682,2.682,0,0,0-.813.124q-7.755,2.385-15.761,4.17a2.757,2.757,0,0,0-2.092,3.29A2.755,2.755,0,0,0,223.4-220.2a2.807,2.807,0,0,0,.6-.066q8.218-1.827,16.188-4.285a2.762,2.762,0,0,0,1.452-1.061V-137.3m-83.964-84.45a2.756,2.756,0,0,0-2.74,2.488,2.758,2.758,0,0,0,2.476,3.009q8.267.806,16.711.965h.052a2.757,2.757,0,0,0,2.755-2.706,2.756,2.756,0,0,0-2.7-2.805q-8.224-.149-16.28-.94c-.09-.008-.181-.011-.27-.011m49.47-1.028a2.614,2.614,0,0,0-.386.028q-8.019,1.12-16.226,1.615a2.756,2.756,0,0,0-2.585,2.916,2.755,2.755,0,0,0,2.748,2.59c.055,0,.113,0,.168-.006q8.42-.5,16.659-1.659a2.757,2.757,0,0,0,2.348-3.111,2.757,2.757,0,0,0-2.726-2.373m-81.977-4.776a2.756,2.756,0,0,0-2.664,2.059,2.756,2.756,0,0,0,1.967,3.365q8.056,2.112,16.354,3.6a2.93,2.93,0,0,0,.488.044,2.759,2.759,0,0,0,2.71-2.273,2.756,2.756,0,0,0-2.229-3.2q-8.075-1.443-15.923-3.5a2.8,2.8,0,0,0-.7-.091" transform="translate(32.497 818.971)" fill="#c8b7e1"/>
      <path id="path74" d="M202.065-265.039h-.052q-8.44-.157-16.711-.965a2.758,2.758,0,0,1-2.476-3.009,2.756,2.756,0,0,1,2.74-2.488c.089,0,.18,0,.27.011q8.053.785,16.28.94a2.756,2.756,0,0,1,2.7,2.805,2.757,2.757,0,0,1-2.755,2.706m16.521-.342a2.755,2.755,0,0,1-2.748-2.59,2.756,2.756,0,0,1,2.585-2.916q8.205-.492,16.226-1.615a2.622,2.622,0,0,1,.386-.028,2.757,2.757,0,0,1,2.726,2.373,2.757,2.757,0,0,1-2.348,3.111q-8.234,1.153-16.659,1.659c-.055.005-.113.005-.168.005M169.2-268.242a2.943,2.943,0,0,1-.488-.044q-8.293-1.48-16.354-3.6a2.756,2.756,0,0,1-1.967-3.365,2.756,2.756,0,0,1,2.664-2.059,2.79,2.79,0,0,1,.7.091q7.844,2.059,15.924,3.5a2.756,2.756,0,0,1,2.229,3.2,2.759,2.759,0,0,1-2.71,2.274m82.086-1.714a2.755,2.755,0,0,1-2.687-2.158,2.757,2.757,0,0,1,2.092-3.291q8-1.777,15.761-4.169a2.686,2.686,0,0,1,.813-.124,2.763,2.763,0,0,1,2.263,1.182v3.147a2.762,2.762,0,0,1-1.452,1.061q-7.966,2.455-16.188,4.285a2.807,2.807,0,0,1-.6.066m-114.034-6.666a2.769,2.769,0,0,1-.91-.154q-7.551-2.641-14.831-5.834l-.755-.331a2.754,2.754,0,0,1-1.4-3.635,2.746,2.746,0,0,1,1.537-1.461,2.771,2.771,0,0,1,.984-.182,2.759,2.759,0,0,1,1.114.237q7.437,3.29,15.174,6a2.757,2.757,0,0,1,1.691,3.511,2.757,2.757,0,0,1-2.6,1.846M107.032-290a2.742,2.742,0,0,1-1.31-.333q-7.382-4-14.4-8.562a2.755,2.755,0,0,1-.809-3.811,2.753,2.753,0,0,1,2.313-1.254,2.752,2.752,0,0,1,1.5.444q6.829,4.44,14.023,8.336a2.757,2.757,0,0,1,1.11,3.737A2.757,2.757,0,0,1,107.032-290m-27.707-18a2.755,2.755,0,0,1-1.678-.57Q71-313.674,64.784-319.29a2.755,2.755,0,0,1-.2-3.891,2.743,2.743,0,0,1,2.045-.909,2.741,2.741,0,0,1,1.846.711q6.052,5.461,12.529,10.445a2.755,2.755,0,0,1,.505,3.864,2.753,2.753,0,0,1-2.186,1.078" transform="translate(4.609 868.724)" fill="#f9ac36"/>
      <path id="path76" d="M167.873-137.3h-4.5V-370.724h4.5a29.2,29.2,0,0,1,29.2,29.2V-166.5a29.2,29.2,0,0,1-29.2,29.2" transform="translate(110.764 818.971)" fill="#967fc7"/>
      <path id="path78" d="M510.259-440.013h-14.25v-17.108h38.579q1.157,0,2.293-.091a29.2,29.2,0,0,1-26.621,17.2" transform="translate(465.643 726.699)" fill="#c8b7e1"/>
      <path id="path80" d="M408.51-563.762q-3.7-1.133-7.416-2.207a28.978,28.978,0,0,1,8.984-2.169,28.972,28.972,0,0,0-1.568,4.376" transform="translate(364.38 608.354)" fill="#e6e6e4"/>
      <path id="path82" d="M416.754-446.108H392.423v-94.043a29.205,29.205,0,0,1,17.921-26.938q3.72,1.075,7.416,2.207a29.211,29.211,0,0,0-1.006,7.62v111.154" transform="translate(355.13 609.474)" fill="#c8b7e1"/>
      <path id="path84" d="M441.194-440.06H554.488v-17.108H441.194Z" transform="translate(407.162 726.747)" fill="#967fc7"/>
      <path id="path86" d="M610.665-292.225v-2.067a67.792,67.792,0,0,1-48.075-19.944,67.792,67.792,0,0,1-19.944-48.076,67.8,67.8,0,0,1,19.944-48.075,67.8,67.8,0,0,1,48.075-19.944,67.808,67.808,0,0,1,48.075,19.944,67.8,67.8,0,0,1,19.944,48.075,67.792,67.792,0,0,1-19.944,48.076,67.8,67.8,0,0,1-48.075,19.944v4.134a72.227,72.227,0,0,0,72.153-72.153,72.229,72.229,0,0,0-72.153-72.153,72.229,72.229,0,0,0-72.153,72.153,72.227,72.227,0,0,0,72.153,72.153ZM746.147-396.249v-2.067H714.519v2.067l1.965-.645a110.859,110.859,0,0,0-7.89-18.365l-1.816.987,1.5,1.425L730.05-435.79A23.045,23.045,0,0,0,736.4-451.7a23.058,23.058,0,0,0-7.2-16.769l-18.7-17.75a23.061,23.061,0,0,0-15.912-6.349,23.051,23.051,0,0,0-16.766,7.2l-21.777,22.939,1.5,1.422.89-1.866a110.977,110.977,0,0,0-13.184-5.261l-.645,1.965h2.067v-31.629a23.113,23.113,0,0,0-23.116-23.116H597.773a23.116,23.116,0,0,0-23.116,23.116v31.629h2.067l-.642-1.965a110.827,110.827,0,0,0-13.187,5.261l.89,1.866,1.5-1.422-21.777-22.939a23.05,23.05,0,0,0-16.766-7.2,23.06,23.06,0,0,0-15.912,6.349l-18.7,17.75a23.053,23.053,0,0,0-7.2,16.769,23.041,23.041,0,0,0,6.349,15.909l21.774,22.94,1.5-1.422-1.819-.987a110.867,110.867,0,0,0-7.89,18.365l1.965.645v-2.067H475.18A23.112,23.112,0,0,0,452.067-375.2v25.784A23.112,23.112,0,0,0,475.18-326.3h31.629v-2.067l-1.965.645a110.737,110.737,0,0,0,7.89,18.362l1.819-.987-1.5-1.422L491.279-288.83a23.037,23.037,0,0,0-6.349,15.909,23.058,23.058,0,0,0,7.2,16.769l18.7,17.748a23.048,23.048,0,0,0,15.912,6.349,23.051,23.051,0,0,0,16.766-7.2l21.777-22.94-1.5-1.425-.89,1.866a110.539,110.539,0,0,0,13.187,5.264l.642-1.965h-2.067v31.626a23.116,23.116,0,0,0,23.116,23.116h25.781a23.113,23.113,0,0,0,23.116-23.116v-31.626H644.6l.642,1.965a110.355,110.355,0,0,0,13.187-5.264l-.89-1.866-1.5,1.425,21.777,22.94a23.051,23.051,0,0,0,16.766,7.2A23.048,23.048,0,0,0,710.5-238.4l18.7-17.748a23.062,23.062,0,0,0,7.2-16.769,23.046,23.046,0,0,0-6.347-15.909l-21.774-22.942-1.5,1.422,1.816.987a110.729,110.729,0,0,0,7.89-18.362l-1.965-.645v2.067h31.629a23.112,23.112,0,0,0,23.113-23.116V-375.2a23.111,23.111,0,0,0-23.113-23.113v4.134a18.915,18.915,0,0,1,13.421,5.559,18.9,18.9,0,0,1,5.558,13.421v25.784A18.91,18.91,0,0,1,759.568-336a18.916,18.916,0,0,1-13.421,5.558H713.02l-.466,1.425a106.361,106.361,0,0,1-7.6,17.676l-.717,1.32,22.81,24.031a18.9,18.9,0,0,1,5.211,13.065,18.9,18.9,0,0,1-5.914,13.771l-18.7,17.748a18.911,18.911,0,0,1-13.065,5.214,18.914,18.914,0,0,1-13.768-5.914l-22.81-24.028-1.356.645a105.873,105.873,0,0,1-12.691,5.065l-1.425.466v33.125a18.917,18.917,0,0,1-5.558,13.424,18.905,18.905,0,0,1-13.424,5.558H597.773a18.9,18.9,0,0,1-13.421-5.558,18.919,18.919,0,0,1-5.561-13.424v-33.125l-1.425-.466a106.054,106.054,0,0,1-12.691-5.065l-1.356-.645L540.513-242.1a18.92,18.92,0,0,1-13.771,5.914,18.911,18.911,0,0,1-13.065-5.214l-18.7-17.748a18.92,18.92,0,0,1-5.914-13.771,18.916,18.916,0,0,1,5.214-13.065l22.807-24.031-.716-1.32a106.379,106.379,0,0,1-7.6-17.676l-.466-1.425H475.18A18.915,18.915,0,0,1,461.759-336a18.91,18.91,0,0,1-5.558-13.424V-375.2a18.9,18.9,0,0,1,5.558-13.421,18.915,18.915,0,0,1,13.421-5.559h33.128l.466-1.425a106.4,106.4,0,0,1,7.6-17.679l.716-1.32-22.807-24.031a18.9,18.9,0,0,1-5.214-13.063,18.92,18.92,0,0,1,5.914-13.771l18.7-17.75a18.911,18.911,0,0,1,13.065-5.214,18.909,18.909,0,0,1,13.768,5.914l22.81,24.031,1.356-.648a106.18,106.18,0,0,1,12.693-5.065l1.422-.466v-33.125a18.924,18.924,0,0,1,5.561-13.424,18.915,18.915,0,0,1,13.421-5.558h25.781a18.917,18.917,0,0,1,13.424,5.558,18.922,18.922,0,0,1,5.558,13.424v33.125l1.422.466a106.213,106.213,0,0,1,12.693,5.065l1.356.648,22.81-24.031a18.909,18.909,0,0,1,13.768-5.914,18.911,18.911,0,0,1,13.065,5.214l18.7,17.75a18.91,18.91,0,0,1,5.914,13.771,18.889,18.889,0,0,1-5.211,13.063l-22.81,24.031.717,1.32a106.394,106.394,0,0,1,7.6,17.679l.466,1.425h33.128v-2.067" transform="translate(418.763 658.742)" fill="#232f62"/>
      <path id="path88" d="M218.243-73.67a70.165,70.165,0,0,1-70.086-70.086,70.166,70.166,0,0,1,70.086-70.089,70.165,70.165,0,0,1,70.086,70.089A70.165,70.165,0,0,1,218.243-73.67ZM353.728-177.7H322.1a108.716,108.716,0,0,0-7.744-18.02l21.774-22.942a21.05,21.05,0,0,0-.774-29.757l-18.7-17.748a21.047,21.047,0,0,0-29.755.774l-21.774,22.942a108.4,108.4,0,0,0-12.941-5.164v-31.626a21.049,21.049,0,0,0-21.046-21.052H205.352A21.049,21.049,0,0,0,184.3-279.238v31.626a108.633,108.633,0,0,0-12.941,5.164L149.59-265.39a21.049,21.049,0,0,0-29.757-.774l-18.7,17.748a21.048,21.048,0,0,0-.777,29.757l21.773,22.942a108.686,108.686,0,0,0-7.742,18.02H82.76a21.048,21.048,0,0,0-21.048,21.049v25.781A21.047,21.047,0,0,0,82.76-109.818h31.627a108.636,108.636,0,0,0,7.744,18.023l-21.775,22.94a21.048,21.048,0,0,0,.777,29.757l18.7,17.75a21.052,21.052,0,0,0,29.757-.777l21.773-22.94A109.574,109.574,0,0,0,184.3-39.9V-8.274a21.048,21.048,0,0,0,21.048,21.049h25.783A21.048,21.048,0,0,0,252.181-8.274V-39.9a108.862,108.862,0,0,0,12.941-5.164L286.9-22.124a21.05,21.05,0,0,0,29.755.777l18.7-17.75a21.05,21.05,0,0,0,.774-29.757l-21.774-22.94a108.844,108.844,0,0,0,7.744-18.023h31.629a21.046,21.046,0,0,0,21.046-21.049v-25.781A21.048,21.048,0,0,0,353.728-177.7" transform="translate(2.301 894.117)" fill="#232f62"/>
      <path id="path90" d="M706.264-156.793H507.117a29.2,29.2,0,0,1-29.2-29.2V-374.157a29.2,29.2,0,0,1,29.2-29.2H706.264a29.2,29.2,0,0,1,29.2,29.2v188.165a29.2,29.2,0,0,1-29.2,29.2" transform="translate(446.344 784.158)" fill="#ee1a98"/>
      <path id="path92" d="M550.574-301.744a26.461,26.461,0,0,1-22.523-29.826,26.458,26.458,0,0,1,29.829-22.523A26.455,26.455,0,0,1,580.4-324.265,26.455,26.455,0,0,1,550.574-301.744Zm56.02-31.789-11.812-1.648a41.157,41.157,0,0,0-1.954-7.135l9.328-7.432a7.937,7.937,0,0,0,1.262-11.153l-6.063-7.6a7.934,7.934,0,0,0-11.15-1.262l-9.328,7.432a41.026,41.026,0,0,0-4.564-2.6l1.648-11.814a7.936,7.936,0,0,0-6.763-8.956l-9.629-1.345a7.939,7.939,0,0,0-8.959,6.766l-1.648,11.812a40.624,40.624,0,0,0-5.1,1.254l-6.937-9.7a7.937,7.937,0,0,0-11.073-1.841l-7.909,5.655a7.937,7.937,0,0,0-1.841,11.073l6.937,9.7a41.134,41.134,0,0,0-3.833,6.327l-11.812-1.648a7.932,7.932,0,0,0-8.956,6.763l-1.345,9.629a7.935,7.935,0,0,0,6.766,8.956l11.812,1.648a40.832,40.832,0,0,0,1.951,7.135l-9.328,7.435a7.936,7.936,0,0,0-1.259,11.153l6.06,7.6a7.937,7.937,0,0,0,11.153,1.259l9.326-7.433a40.862,40.862,0,0,0,4.566,2.6l-1.651,11.812a7.935,7.935,0,0,0,6.766,8.956l9.629,1.348a7.94,7.94,0,0,0,8.956-6.766l1.651-11.814a40.594,40.594,0,0,0,5.1-1.254l6.939,9.7a7.937,7.937,0,0,0,11.073,1.841l7.909-5.652A7.94,7.94,0,0,0,594.35-293.8l-6.937-9.7a41.1,41.1,0,0,0,3.831-6.327l11.811,1.648a7.939,7.939,0,0,0,8.959-6.763l1.342-9.629a7.937,7.937,0,0,0-6.763-8.959" transform="translate(464.584 801.47)" fill="#fff"/>
      <path id="path94" d="M584.05-278.027A20.966,20.966,0,0,1,566.2-301.666a20.964,20.964,0,0,1,23.637-17.847,20.963,20.963,0,0,1,17.847,23.64A20.966,20.966,0,0,1,584.05-278.027Zm44.4-25.191-9.362-1.309a32.419,32.419,0,0,0-1.546-5.652l7.391-5.889a6.29,6.29,0,0,0,1-8.841l-4.8-6.027a6.289,6.289,0,0,0-8.838-1l-7.391,5.889a32.215,32.215,0,0,0-3.618-2.061l1.309-9.362a6.292,6.292,0,0,0-5.363-7.1l-7.631-1.066a6.288,6.288,0,0,0-7.1,5.363l-1.309,9.359a32.638,32.638,0,0,0-4.043.995l-5.5-7.689a6.285,6.285,0,0,0-8.772-1.461l-6.27,4.481a6.289,6.289,0,0,0-1.458,8.775l5.495,7.691a32.454,32.454,0,0,0-3.037,5.013l-9.359-1.306a6.288,6.288,0,0,0-7.1,5.36l-1.067,7.631a6.29,6.29,0,0,0,5.36,7.1l9.362,1.309a32.758,32.758,0,0,0,1.546,5.652l-7.391,5.889a6.29,6.29,0,0,0-1,8.838l4.8,6.027a6.293,6.293,0,0,0,8.841,1l7.388-5.892a32.452,32.452,0,0,0,3.618,2.064l-1.306,9.362a6.289,6.289,0,0,0,5.357,7.1l7.634,1.064a6.291,6.291,0,0,0,7.1-5.36l1.306-9.362a32.151,32.151,0,0,0,4.043-.992l5.5,7.689a6.29,6.29,0,0,0,8.774,1.458l6.27-4.481a6.293,6.293,0,0,0,1.458-8.775l-5.5-7.689a32.208,32.208,0,0,0,3.034-5.013l9.364,1.306a6.291,6.291,0,0,0,7.1-5.363l1.067-7.628a6.285,6.285,0,0,0-5.36-7.1" transform="translate(512.601 845.676)" fill="#fff"/>
      <path id="path96" d="M632.254-.87H433.106a29.2,29.2,0,0,1-29.2-29.2V-218.233a29.2,29.2,0,0,1,29.2-29.2H632.254a29.2,29.2,0,0,1,29.2,29.2V-30.065a29.2,29.2,0,0,1-29.2,29.2" transform="translate(367.386 950.513)" fill="#4746a4"/>
      <path id="path98" d="M499.545-192.284a22.188,22.188,0,0,1-22.19,22.19,22.186,22.186,0,0,1-22.19-22.19,22.188,22.188,0,0,1,22.19-22.19,22.19,22.19,0,0,1,22.19,22.19" transform="translate(422.069 985.672)" fill="#a08bcd"/>
      <path id="path100" d="M503.518-194.361a27,27,0,0,1-18.847,7.65,27,27,0,0,1-18.847-7.65,34.584,34.584,0,0,0-17.516,29.818v19.591h72.726v-19.591a34.59,34.59,0,0,0-17.516-29.818" transform="translate(414.753 1007.13)" fill="#a08bcd"/>
      <path id="path102" d="M537.511-182.919a22.188,22.188,0,0,1-22.19,22.19,22.19,22.19,0,0,1-22.19-22.19,22.191,22.191,0,0,1,22.19-22.193,22.189,22.189,0,0,1,22.19,22.193" transform="translate(462.573 995.66)" fill="#a08bcd"/>
      <path id="path104" d="M541.482-185a27,27,0,0,1-18.847,7.647A26.99,26.99,0,0,1,503.791-185a34.58,34.58,0,0,0-17.516,29.815v19.594H559v-19.594A34.58,34.58,0,0,0,541.482-185" transform="translate(455.258 1017.12)" fill="#a08bcd"/>
      <path id="path106" d="M462.2-182.919a22.192,22.192,0,0,1-22.19,22.19,22.192,22.192,0,0,1-22.193-22.19,22.193,22.193,0,0,1,22.193-22.193,22.192,22.192,0,0,1,22.19,22.193" transform="translate(382.227 995.66)" fill="#a08bcd"/>
      <path id="path108" d="M466.176-185a27.007,27.007,0,0,1-18.847,7.647A27.013,27.013,0,0,1,428.479-185a34.577,34.577,0,0,0-17.513,29.815v19.594h72.724v-19.594A34.583,34.583,0,0,0,466.176-185" transform="translate(374.913 1017.12)" fill="#a08bcd"/>
      <path id="path110" d="M632.541-329.9H433.393a29.2,29.2,0,0,1-29.2-29.2V-547.265a29.2,29.2,0,0,1,29.2-29.2H632.541a29.2,29.2,0,0,1,29.2,29.2V-359.1a29.2,29.2,0,0,1-29.2,29.2" transform="translate(367.689 599.476)" fill="#ee1a98"/>
      <path id="path112" d="M567.832-424.131c-1.149,1.356-2.365,2.679-3.616,3.93a76.474,76.474,0,0,1-36.964,21.038,71.86,71.86,0,0,1-15.579,2.119c-.868.069-1.736.069-2.607.069s-1.739,0-2.61-.069a73.619,73.619,0,0,1-15.543-2.086,77.093,77.093,0,0,1-37-21.071c-1.251-1.251-2.431-2.574-3.58-3.966a76.425,76.425,0,0,1-18.467-47.466c-.066-.868-.066-1.736-.066-2.607s0-1.739.066-2.607A76.5,76.5,0,0,1,448.8-522.5c1.078-1.359,2.227-2.712,3.442-4a77.208,77.208,0,0,1,38.667-22.843,73.631,73.631,0,0,1,15.543-2.086c.871-.072,1.742-.072,2.61-.072s1.739,0,2.607.072a71.863,71.863,0,0,1,15.579,2.119,77.25,77.25,0,0,1,38.667,22.777c1.182,1.287,2.331,2.643,3.442,4.035A76.5,76.5,0,0,1,586.3-476.848c.069.868.069,1.739.069,2.607s0,1.739-.069,2.607a76.72,76.72,0,0,1-18.467,47.5m5.842-101.329c-1.078-1.392-2.227-2.712-3.373-4.034a82.449,82.449,0,0,0-61.235-27.225,82.452,82.452,0,0,0-61.237,27.225c-1.146,1.323-2.26,2.643-3.337,4.034a81.777,81.777,0,0,0-17.91,51.22,82.013,82.013,0,0,0,19.335,52.995c1.113,1.356,2.3,2.679,3.547,3.93a82.159,82.159,0,0,0,59.6,25.558,82.157,82.157,0,0,0,59.6-25.558c1.251-1.251,2.433-2.574,3.547-3.93a81.85,81.85,0,0,0,19.371-52.995,81.778,81.778,0,0,0-17.91-51.22" transform="translate(391.573 620.536)" fill="#fff"/>
      <path id="path114" d="M521.814-436.025c-.485,1.706-1.006,3.373-1.527,5.01-6.4,19.159-16.9,32.2-28.9,33.833a16.6,16.6,0,0,1-2.607.207,16.689,16.689,0,0,1-2.61-.207c-12-1.634-22.5-14.708-28.862-33.869-.521-1.634-1.042-3.3-1.527-5.007a141.346,141.346,0,0,1-4.938-35.575c-.036-.868-.036-1.736-.036-2.607s0-1.739.036-2.607a142.789,142.789,0,0,1,4.241-33c.452-1.739.937-3.409,1.425-5.043,6.261-20.55,17.144-34.7,29.661-36.407a16.669,16.669,0,0,1,2.61-.209,16.581,16.581,0,0,1,2.607.209c12.553,1.7,23.436,15.857,29.7,36.407.521,1.634.973,3.3,1.392,5.043a140.826,140.826,0,0,1,4.274,33c.036.868.036,1.739.036,2.607s0,1.739-.036,2.607a141.7,141.7,0,0,1-4.938,35.608Zm10.155-40.822a144.647,144.647,0,0,0-4.52-34.7c-.419-1.739-.868-3.442-1.389-5.076C521.644-530.989,515-542.4,506.969-549.315c-5.492-4.762-11.649-7.4-18.186-7.4-6.5,0-12.66,2.607-18.153,7.372-8.033,6.92-14.675,18.359-19.057,32.72-.518,1.634-1.006,3.337-1.458,5.076a146.528,146.528,0,0,0-4.486,34.7c-.036.868-.036,1.739-.036,2.607s0,1.739.036,2.607a146.031,146.031,0,0,0,5.181,37.278c.488,1.7,1.009,3.373,1.565,4.974,4.382,13.211,10.709,23.714,18.255,30.251,5.492,4.765,11.649,7.372,18.153,7.372,6.537,0,12.693-2.643,18.186-7.4,7.545-6.5,13.876-17.006,18.291-30.185.521-1.634,1.042-3.3,1.529-5.007a146.023,146.023,0,0,0,5.181-37.278c.036-.868.036-1.736.036-2.607s0-1.739-.036-2.607" transform="translate(411.856 620.536)" fill="#fff"/>
      <path id="path116" d="M561.055-543.548c-1.428,1.044-2.885,2.053-4.382,2.957a101.44,101.44,0,0,1-19.575,9.91c-1.637.626-3.307,1.218-4.974,1.739a102.468,102.468,0,0,1-29.7,5.007c-.868.069-1.736.069-2.607.069s-1.739,0-2.61-.069a102.245,102.245,0,0,1-29.661-5.007c-1.667-.521-3.3-1.08-4.938-1.739A100.587,100.587,0,0,1,443-540.558c-1.5-.937-2.954-1.912-4.418-2.99-1.146,1.323-2.26,2.643-3.335,4.034,1.422,1.044,2.85,2.017,4.31,2.957A111.5,111.5,0,0,0,461.153-525.6c1.634.593,3.3,1.182,4.972,1.706a109.42,109.42,0,0,0,31.086,5.214c.871.036,1.742.036,2.61.036s1.739,0,2.607-.036a109.455,109.455,0,0,0,31.089-5.214c1.667-.524,3.337-1.113,4.971-1.706a112.777,112.777,0,0,0,21.628-10.952c1.461-.94,2.888-1.948,4.313-2.957-1.078-1.392-2.227-2.712-3.373-4.034" transform="translate(400.819 634.589)" fill="#fff"/>
      <path id="path118" d="M557.851-483.829a111.658,111.658,0,0,0-20.76-10.224c-1.634-.59-3.3-1.146-4.972-1.67a109.984,109.984,0,0,0-30.427-5c-.868-.036-1.736-.036-2.607-.036s-1.739,0-2.61.036a110.924,110.924,0,0,0-30.388,4.972c-1.67.557-3.34,1.113-4.974,1.7a111.768,111.768,0,0,0-20.76,10.188c-1.494.94-2.957,1.913-4.418,2.921,1.113,1.356,2.3,2.679,3.547,3.93,1.463-1.009,2.924-1.981,4.451-2.885a104.14,104.14,0,0,1,18.745-9.182c1.634-.59,3.268-1.146,4.936-1.667a102.931,102.931,0,0,1,28.862-4.729c.871-.069,1.742-.069,2.61-.069s1.739,0,2.607.069a103.087,103.087,0,0,1,28.9,4.765c1.667.485,3.337,1.077,4.971,1.667a103.246,103.246,0,0,1,18.674,9.146c1.532.9,2.99,1.877,4.451,2.885,1.251-1.251,2.433-2.574,3.547-3.93-1.425-.973-2.888-1.946-4.382-2.885" transform="translate(401.553 680.235)" fill="#fff"/>
      <path id="path120" d="M587.612-512.863H427.846v-5.214H587.612v5.214" transform="translate(392.921 661.763)" fill="#fff"/>
      <path id="path122" d="M470.448-395.7h-5.214V-555.465h5.214V-395.7" transform="translate(432.81 621.875)" fill="#fff"/>
      <path id="path124" d="M264.577-148.074H85.808a29.2,29.2,0,0,1-29.2-29.2V-345.929a29.2,29.2,0,0,1,29.2-29.2H264.577a29.2,29.2,0,0,1,29.2,29.2v168.657a29.2,29.2,0,0,1-29.2,29.2" transform="translate(-3.142 814.277)" fill="#ee1a98"/>
      <path id="path126" d="M159.59-366.2H68.466v16.188H159.59V-366.2" transform="translate(9.507 823.804)" fill="#fff"/>
      <path id="path128" d="M147.162-366.2H131.367v16.188h15.794V-366.2" transform="translate(76.615 823.804)" fill="#fab743"/>
      <path id="path130" d="M157.408-366.2h-15.8v16.188h15.8V-366.2" transform="translate(87.544 823.804)" fill="#fab743"/>
      <path id="path132" d="M167.652-366.2H151.858v16.188h15.794V-366.2" transform="translate(98.476 823.804)" fill="#fab743"/>
      <path id="path134" d="M308.126-322.829H142.81a29.2,29.2,0,0,1-29.2-29.2V-507.806a29.2,29.2,0,0,1,29.2-29.2H308.126a29.2,29.2,0,0,1,29.2,29.2v155.779a29.2,29.2,0,0,1-29.2,29.2" transform="translate(57.672 641.574)" fill="#4746a4"/>
      <path id="path136" d="M126.815-453.431v13.548c0,3.029,22.908,5.484,51.167,5.484s51.168-2.455,51.168-5.484v-13.548H126.815" transform="translate(71.758 730.734)" fill="#fab743"/>
      <path id="path138" d="M229.149-450.6c0,3.029-22.906,5.484-51.168,5.484s-51.167-2.455-51.167-5.484,22.908-5.481,51.167-5.481,51.168,2.453,51.168,5.481" transform="translate(71.758 727.904)" fill="#c3c5c2"/>
      <path id="path140" d="M126.815-459.9v13.548c0,3.029,22.908,5.481,51.167,5.481s51.168-2.453,51.168-5.481V-459.9H126.815" transform="translate(71.758 723.836)" fill="#fff"/>
      <path id="path142" d="M229.149-457.065c0,3.029-22.906,5.481-51.168,5.481s-51.167-2.453-51.167-5.481,22.908-5.484,51.167-5.484,51.168,2.455,51.168,5.484" transform="translate(71.758 721.005)" fill="#c3c5c2"/>
      <path id="path144" d="M126.815-466.363v13.548c0,3.029,22.908,5.484,51.167,5.484s51.168-2.455,51.168-5.484v-13.548H126.815" transform="translate(71.758 716.937)" fill="#fab743"/>
      <path id="path146" d="M229.149-463.532c0,3.029-22.906,5.484-51.168,5.484s-51.167-2.455-51.167-5.484,22.908-5.484,51.167-5.484,51.168,2.455,51.168,5.484" transform="translate(71.758 714.106)" fill="#c3c5c2"/>
      <path id="path148" d="M126.815-479.295v13.548c0,3.029,22.908,5.484,51.167,5.484s51.168-2.455,51.168-5.484v-13.548H126.815" transform="translate(71.758 703.14)" fill="#fab743"/>
      <path id="path150" d="M229.149-476.465c0,3.029-22.906,5.484-51.168,5.484s-51.167-2.455-51.167-5.484,22.908-5.481,51.167-5.481,51.168,2.453,51.168,5.481" transform="translate(71.758 700.31)" fill="#c3c5c2"/>
      <path id="path152" d="M126.815-472.828v13.548c0,3.029,22.908,5.484,51.167,5.484s51.168-2.455,51.168-5.484v-13.548H126.815" transform="translate(71.758 710.039)" fill="#fff"/>
      <path id="path154" d="M229.149-470c0,3.029-22.906,5.484-51.168,5.484s-51.167-2.455-51.167-5.484,22.908-5.484,51.167-5.484,51.168,2.455,51.168,5.484" transform="translate(71.758 707.208)" fill="#fab743"/>
      <path id="path156" d="M126.815-485.76v13.548c0,3.029,22.908,5.481,51.167,5.481s51.168-2.453,51.168-5.481V-485.76H126.815" transform="translate(71.758 696.242)" fill="#fff"/>
      <path id="path158" d="M229.149-482.929c0,3.029-22.906,5.481-51.168,5.481s-51.167-2.453-51.167-5.481,22.908-5.484,51.167-5.484,51.168,2.455,51.168,5.484" transform="translate(71.758 693.411)" fill="#fab743"/>
      <path id="path160" d="M262.861-473.641a52.515,52.515,0,0,1-52.515,52.515,52.517,52.517,0,0,1-52.518-52.515,52.517,52.517,0,0,1,52.518-52.518,52.515,52.515,0,0,1,52.515,52.518" transform="translate(104.845 653.142)" fill="#fab743"/>
      <path id="path162" d="M207.084-519.126A42.271,42.271,0,0,0,164.859-476.9a42.271,42.271,0,0,0,42.225,42.222A42.272,42.272,0,0,0,249.309-476.9,42.273,42.273,0,0,0,207.084-519.126Zm0,88.424a46.25,46.25,0,0,1-46.2-46.2,46.252,46.252,0,0,1,46.2-46.2,46.252,46.252,0,0,1,46.2,46.2,46.25,46.25,0,0,1-46.2,46.2" transform="translate(108.107 656.402)" fill="#fff"/>
      <path id="path164" d="M361.347,17.631H162.2A29.2,29.2,0,0,1,133-11.564V-199.732a29.2,29.2,0,0,1,29.2-29.2H361.347a29.2,29.2,0,0,1,29.2,29.2V-11.564a29.2,29.2,0,0,1-29.2,29.195" transform="translate(78.358 970.252)" fill="#4746a4"/>
      <path id="path166" d="M194.724-111.919H177.409v-58.523h17.315v58.523" transform="translate(125.736 1032.648)" fill="#a08bcd"/>
      <path id="path168" d="M216.759-87.483H234.08V-193.347H216.759Z" transform="translate(167.718 1008.211)" fill="#a08bcd"/>
      <path id="path170" d="M207.882-120.93H190.565V-162h17.318v41.067" transform="translate(139.772 1041.658)" fill="#a08bcd"/>
      <path id="path172" d="M229.059-95.515h17.318v-90.3H229.059Z" transform="translate(180.841 1016.244)" fill="#a08bcd"/>
      <path id="path174" d="M181.2-120.93H166.488V-162H181.2v41.067" transform="translate(114.084 1041.658)" fill="#a08bcd"/>
      <path id="path176" d="M220.7-98H203.378v-85.48H220.7V-98" transform="translate(153.442 1018.733)" fill="#a08bcd"/>
      <path id="path178" d="M159.744-42.175a1.077,1.077,0,0,1-1.075-1.078V-208.767a1.076,1.076,0,0,1,1.075-1.075,1.076,1.076,0,0,1,1.075,1.075V-43.252a1.077,1.077,0,0,1-1.075,1.078" transform="translate(105.742 990.613)" fill="#a08bcd"/>
      <path id="path180" d="M319.24-133.253H153.722a1.074,1.074,0,0,1-1.075-1.072,1.077,1.077,0,0,1,1.075-1.078H319.24a1.077,1.077,0,0,1,1.075,1.078,1.074,1.074,0,0,1-1.075,1.072" transform="translate(99.318 1070.032)" fill="#a08bcd"/>
      <path id="path182" d="M168.959-139.846a1.077,1.077,0,0,1-.8-.361,1.077,1.077,0,0,1,.088-1.518l27.269-24.227a1.063,1.063,0,0,1,1.392-.033l24.976,20.244,54.874-62.017a1.093,1.093,0,0,1,.761-.364l.783.295,27.649,26.048a1.072,1.072,0,0,1,.044,1.518,1.064,1.064,0,0,1-1.516.044l-26.845-25.29-54.819,61.959a1.074,1.074,0,0,1-1.483.124L196.258-163.74l-26.583,23.62a1.079,1.079,0,0,1-.716.273" transform="translate(115.575 992.448)" fill="#a08bcd"/>
      <path id="path184" d="M604.685-247.776h-44.62a1.864,1.864,0,0,1-1.863-1.863,1.865,1.865,0,0,1,1.863-1.866h44.62a1.863,1.863,0,0,1,1.863,1.866,1.863,1.863,0,0,1-1.863,1.863" transform="translate(531.997 946.164)" fill="#a08bcd"/>
      <path id="path186" d="M564.787-247.776h-33.3a1.865,1.865,0,0,1-1.866-1.863,1.865,1.865,0,0,1,1.866-1.866h33.3a1.863,1.863,0,0,1,1.863,1.866,1.862,1.862,0,0,1-1.863,1.863" transform="translate(501.503 946.164)" fill="#a08bcd"/>
      <path id="path188" d="M590.668-260.845H516.534a1.865,1.865,0,0,1-1.866-1.866,1.865,1.865,0,0,1,1.866-1.863h74.135a1.864,1.864,0,0,1,1.863,1.863,1.865,1.865,0,0,1-1.863,1.866" transform="translate(485.551 932.221)" fill="#a08bcd"/>
      <path id="path190" d="M178.2-408.225H127.537a1.863,1.863,0,0,1-1.864-1.863,1.861,1.861,0,0,1,1.864-1.863H178.2a1.862,1.862,0,0,1,1.863,1.863,1.864,1.864,0,0,1-1.863,1.863" transform="translate(70.54 774.988)" fill="#a08bcd"/>
      <path id="path192" d="M140.751-408.225H91.472a1.863,1.863,0,0,1-1.864-1.863,1.861,1.861,0,0,1,1.864-1.863h49.279a1.862,1.862,0,0,1,1.864,1.863,1.864,1.864,0,0,1-1.864,1.863" transform="translate(32.063 774.988)" fill="#a08bcd"/>
      <path id="path194" d="M199.478-397.765H114.742a1.862,1.862,0,0,1-1.865-1.863,1.864,1.864,0,0,1,1.865-1.863h84.736a1.862,1.862,0,0,1,1.863,1.863,1.861,1.861,0,0,1-1.863,1.863" transform="translate(56.889 786.147)" fill="#a08bcd"/>
      <path id="path196" d="M466.9-98.156H399.385a1.861,1.861,0,0,1-1.863-1.863,1.863,1.863,0,0,1,1.863-1.866H466.9a1.866,1.866,0,0,1,1.866,1.866,1.863,1.863,0,0,1-1.866,1.863" transform="translate(360.57 1105.79)" fill="#a08bcd"/>
      <path id="path198" d="M504.384-111.082H405.207a1.863,1.863,0,0,1-1.866-1.864,1.863,1.863,0,0,1,1.866-1.862h99.177a1.861,1.861,0,0,1,1.863,1.862,1.861,1.861,0,0,1-1.863,1.864" transform="translate(366.779 1092.004)" fill="#a08bcd"/>
      <path id="path200" d="M415.765-111.082H378.451a1.863,1.863,0,0,1-1.866-1.864,1.863,1.863,0,0,1,1.866-1.862h37.314a1.862,1.862,0,0,1,1.863,1.862,1.863,1.863,0,0,1-1.863,1.864" transform="translate(338.233 1092.004)" fill="#a08bcd"/>
      <path id="path202" d="M313.136-543.385H219.656a1.862,1.862,0,0,1-1.863-1.863,1.863,1.863,0,0,1,1.863-1.866h93.481A1.865,1.865,0,0,1,315-545.248a1.865,1.865,0,0,1-1.866,1.863" transform="translate(168.82 630.786)" fill="#a08bcd"/>
      <path id="path204" d="M323.5-530.846H242.894a1.864,1.864,0,0,1-1.863-1.863,1.865,1.865,0,0,1,1.863-1.866H323.5a1.863,1.863,0,0,1,1.863,1.866,1.862,1.862,0,0,1-1.863,1.863" transform="translate(193.613 644.163)" fill="#a08bcd"/>
      <path id="path206" d="M456.586-473.166h-124.3v-6.2a29.2,29.2,0,0,1,29.2-29.2h95.107v35.39" transform="translate(290.966 671.922)" fill="#c8b7e1"/>
      <path id="path208" d="M332.282-441.015h124.3v-50.419h-124.3Z" transform="translate(290.967 690.189)" fill="#e51093"/>
      <path id="path210" d="M528.194-337.34H361.48a29.2,29.2,0,0,1-29.2-29.2V-467.04h124.3v8.314a29.2,29.2,0,0,0,29.2,29.2h71.6v62.993a29.2,29.2,0,0,1-29.2,29.2" transform="translate(290.967 716.214)" fill="#967fc7"/>
      <path id="path212" d="M392.423-473.166h24.331v-35.39H392.423Z" transform="translate(355.13 671.922)" fill="#b5a7d8"/>
      <path id="path214" d="M418.1-441.015H392.423v-50.418h24.331v41.624a29.244,29.244,0,0,0,1.348,8.794" transform="translate(355.13 690.189)" fill="#d20f89"/>
      <path id="path216" d="M493.226-429.528h-71.6a29.2,29.2,0,0,1-29.2-29.2v-8.314H418.1a29.21,29.21,0,0,0,27.85,20.4h47.274v17.108" transform="translate(355.13 716.214)" fill="#8c74c1"/>
      <path id="path218" d="M480.667-402.344H433.393a29.21,29.21,0,0,1-27.85-20.4,29.244,29.244,0,0,1-1.348-8.794v-77.014h47.276c.256,0,.515,0,.772.008A82.093,82.093,0,0,0,469.8-472.631h0c1.113,1.356,2.3,2.679,3.547,3.93h0a83.353,83.353,0,0,0,7.32,6.8v59.554m0-66.46q-1.467-1.356-2.869-2.783c.948-.59,1.9-1.16,2.869-1.72v4.5m-6.449-6.749h0a76.429,76.429,0,0,1-16.463-32.326,29.207,29.207,0,0,1,22.912,28.517v.061q-3.29,1.773-6.449,3.748" transform="translate(367.689 671.922)" fill="#e51093"/>
      <path id="path220" d="M455.865-461.9a83.353,83.353,0,0,1-7.32-6.8c1.463-1.009,2.924-1.981,4.451-2.885h0q1.4,1.426,2.869,2.783v6.906M445-472.635h0a82.092,82.092,0,0,1-17.557-35.917,29.261,29.261,0,0,1,5.512.67,76.429,76.429,0,0,0,16.463,32.326h0c-1.494.94-2.957,1.912-4.418,2.921" transform="translate(392.491 671.926)" fill="#e6e6e4"/>
      <path id="path222" d="M439.483-483.8c-1.251-1.251-2.433-2.574-3.547-3.93h0c1.461-1.009,2.924-1.981,4.418-2.921h0q3.154-1.972,6.449-3.748v5.994c-.965.559-1.921,1.13-2.869,1.72h0c-1.527.9-2.987,1.877-4.451,2.885h0" transform="translate(401.553 687.023)" fill="#e6e6e4"/>
      <path id="path224" d="M521.113-299.548H354.4a29.2,29.2,0,0,1-29.2-29.2V-485.862a29.2,29.2,0,0,1,29.2-29.2H521.113a29.2,29.2,0,0,1,29.2,29.2v157.116a29.2,29.2,0,0,1-29.2,29.2" transform="translate(283.412 664.983)" fill="#4746a4"/>
      <path id="path226" d="M468.754-377.841a71.647,71.647,0,0,1-101.183,5.368,71.648,71.648,0,0,1-5.366-101.186,71.546,71.546,0,0,1,71.417-21.374l-24.59,72.666,77.839,1.028c-1.224,15.108-7.215,31.372-18.117,43.5" transform="translate(303.287 683.854)" fill="#a08bcd"/>
      <path id="path228" d="M382.106-429.12l72.737.469a73.758,73.758,0,0,0-24.1-54.56,72.477,72.477,0,0,0-25.434-14.86l-23.2,68.951" transform="translate(344.123 683.108)" fill="#fab743"/>
      <path id="path230" d="M436.708-59.536H250.147a29.2,29.2,0,0,1-29.2-29.2v-20.9h34.106A501.254,501.254,0,0,0,453.232-69.082c1.695,0,3.4-.009,5.093-.025a29.113,29.113,0,0,1-21.617,9.571" transform="translate(172.188 1097.52)" fill="#e6e6e4"/>
      <path id="path232" d="M435.628,10.834A501.253,501.253,0,0,1,237.45-29.721h12.462a29.2,29.2,0,0,0,27.153-18.445,29.206,29.206,0,0,0,23.378-28.619V-184.544H448.3V-8.818a29.092,29.092,0,0,1-7.581,19.627c-1.689.016-3.4.025-5.093.025" transform="translate(189.792 1017.604)" fill="#c8b7e1"/>
      <path id="path234" d="M415.786-169.27H267.927v-29.589H386.588a29.2,29.2,0,0,1,29.2,29.2v.391" transform="translate(222.308 1002.331)" fill="#967fc7"/>
      <path id="path236" d="M256.617-48.166a29.15,29.15,0,0,0,2.042-10.75V-184.544h21.336V-76.785a29.206,29.206,0,0,1-23.378,28.619" transform="translate(210.241 1017.604)" fill="#b5a7d8"/>
      <path id="path238" d="M257.6-169.27h21.336v-29.59H257.6Z" transform="translate(211.295 1002.33)" fill="#8c74c1"/>
      <path id="path240" d="M267.517-14.448H220.949v-51.1h25.423a1.074,1.074,0,0,0,1.075-1.072,1.077,1.077,0,0,0-1.075-1.078H220.949V-81.6h8.662V-187.467h-2.6a29.253,29.253,0,0,1,13.346-9.709l7.512,7.077a1.076,1.076,0,0,0,.739.295,1.056,1.056,0,0,0,.777-.339,1.072,1.072,0,0,0-.044-1.518l-6.625-6.242a29.263,29.263,0,0,1,7.435-.956h46.565V-43.642a29.15,29.15,0,0,1-2.042,10.75,29.2,29.2,0,0,1-27.153,18.445M237.713-171.9v90.3H255.03v-90.3H237.713" transform="translate(172.188 1002.331)" fill="#4542a2"/>
      <path id="path242" d="M229.61-87.482h-8.662v-88.06a29.069,29.069,0,0,1,6.057-17.805h2.6V-87.482" transform="translate(172.188 1008.211)" fill="#967fc7"/>
      <path id="path244" d="M229.059-95.515h17.318v-90.3H229.059Z" transform="translate(180.841 1016.244)" fill="#967fc7"/>
      <path id="path246" d="M246.371-133.253H220.949v-2.15h25.423a1.077,1.077,0,0,1,1.075,1.078,1.074,1.074,0,0,1-1.075,1.072" transform="translate(172.188 1070.032)" fill="#967fc7"/>
      <path id="path248" d="M238.588-190.3a1.076,1.076,0,0,1-.739-.295l-7.512-7.077c.772-.273,1.56-.518,2.359-.728l6.625,6.242a1.072,1.072,0,0,1,.044,1.518,1.056,1.056,0,0,1-.777.339" transform="translate(182.203 1002.824)" fill="#967fc7"/>
      <path id="path250" d="M439.877,38.126H261.109a29.2,29.2,0,0,1-29.2-29.195v-168.66a29.194,29.194,0,0,1,29.2-29.193H439.877a29.2,29.2,0,0,1,29.2,29.193V8.932a29.2,29.2,0,0,1-29.2,29.195" transform="translate(183.886 1012.934)" fill="#ee1a98"/>
      <path id="path252" d="M359.541-83.516v-28.6H386.8l-2.185,28.6Zm-66-28.6H320.5v28.6H303.909Zm26.96-34.23v30.474H292.177L278.6-153.307Zm35.294,34.23v28.6H324.247v-28.6Zm-31.543-3.756v-29.854l31.543,5.242v24.612Zm62.841,0H359.541v-23.99l29.013,4.817Zm6.085-26.012L273.5-161.762l-.179-.006-.328-.008a3.659,3.659,0,0,0-1.1.13l-.185.022L254.262-155.9a3.755,3.755,0,0,0-2.392,4.74,3.75,3.75,0,0,0,3.566,2.579,3.7,3.7,0,0,0,1.171-.187l13.986-4.594,26.781,73.842-.072.044c-1.017.946-9.921,9.456-9.921,17.351a3.751,3.751,0,0,0,3.753,3.754H381.2a3.751,3.751,0,0,0,3.753-3.754,3.75,3.75,0,0,0-3.753-3.75H296.063a34.184,34.184,0,0,1,6.352-8.108,3.644,3.644,0,0,0,1.056-2.034h84.623a3.753,3.753,0,0,0,3.74-3.466L396.3-137.9a3.752,3.752,0,0,0-3.125-3.985" transform="translate(204.975 1041.892)" fill="#fff"/>
      <path id="path254" d="M279.205-109.733a9.534,9.534,0,0,0-9.535,9.532,9.535,9.535,0,0,0,9.535,9.535,9.535,9.535,0,0,0,9.532-9.535,9.533,9.533,0,0,0-9.532-9.532" transform="translate(224.167 1097.418)" fill="#fff"/>
      <path id="path256" d="M314.653-109.733a9.534,9.534,0,0,0-9.535,9.532,9.535,9.535,0,0,0,9.535,9.535,9.535,9.535,0,0,0,9.532-9.535,9.533,9.533,0,0,0-9.532-9.532" transform="translate(261.986 1097.418)" fill="#fff"/>
      <path id="path258" d="M541.1-45.733A35.456,35.456,0,0,1,524.249-92.9a35.454,35.454,0,0,1,47.169-16.849A35.456,35.456,0,0,1,588.267-62.58,35.457,35.457,0,0,1,541.1-45.733Zm84.378-18.2-14.446-6.842a54.5,54.5,0,0,0,.364-9.9L626.3-86.449a10.631,10.631,0,0,0,6.082-13.757l-4.7-12.151a10.633,10.633,0,0,0-13.757-6.082l-14.906,5.768a53.872,53.872,0,0,0-4.79-5.159l6.84-14.446a10.636,10.636,0,0,0-5.06-14.165l-11.773-5.578a10.64,10.64,0,0,0-14.168,5.06l-6.84,14.443a55.314,55.314,0,0,0-7.027-.441l-4.983-15.185a10.632,10.632,0,0,0-13.421-6.79l-12.379,4.059a10.638,10.638,0,0,0-6.793,13.421l4.983,15.187a54.853,54.853,0,0,0-7.435,6.556l-14.443-6.84a10.632,10.632,0,0,0-14.165,5.06l-5.578,11.773a10.634,10.634,0,0,0,5.06,14.166l14.443,6.842a54.988,54.988,0,0,0-.364,9.9l-14.906,5.768a10.635,10.635,0,0,0-6.082,13.757l4.7,12.15a10.633,10.633,0,0,0,13.757,6.082L513.5-42.81a54.131,54.131,0,0,0,4.79,5.155l-6.84,14.447a10.634,10.634,0,0,0,5.057,14.164l11.776,5.578a10.641,10.641,0,0,0,14.168-5.059l6.84-14.447a54.677,54.677,0,0,0,7.027.443L561.3-7.342A10.635,10.635,0,0,0,574.723-.552L587.1-4.611a10.638,10.638,0,0,0,6.793-13.421l-4.983-15.187a54.866,54.866,0,0,0,7.432-6.557l14.443,6.84A10.636,10.636,0,0,0,624.956-38l5.575-11.773a10.633,10.633,0,0,0-5.057-14.166" transform="translate(447.94 1048.628)" fill="#232f62"/>
      <path id="path260" d="M121.83-446.678a31.329,31.329,0,0,1-13.307-42.208,31.332,31.332,0,0,1,42.209-13.308,31.331,31.331,0,0,1,13.307,42.211A31.328,31.328,0,0,1,121.83-446.678Zm75.109-13.261-12.526-6.523a48.524,48.524,0,0,0,.648-8.736l13.355-4.594a9.4,9.4,0,0,0,5.827-11.947L200.5-502.624a9.4,9.4,0,0,0-11.946-5.829l-13.354,4.6a48.275,48.275,0,0,0-4.059-4.713l6.521-12.525a9.4,9.4,0,0,0-3.995-12.679l-10.213-5.316a9.4,9.4,0,0,0-12.677,4l-6.521,12.528a48.465,48.465,0,0,0-6.19-.623l-3.893-13.575a9.4,9.4,0,0,0-11.626-6.443l-11.065,3.175a9.4,9.4,0,0,0-6.444,11.624l3.895,13.575a48.344,48.344,0,0,0-6.784,5.542L89.62-515.81a9.394,9.394,0,0,0-12.676,4L71.628-501.6a9.4,9.4,0,0,0,4,12.677l12.526,6.52a48.442,48.442,0,0,0-.648,8.736l-13.355,4.6a9.4,9.4,0,0,0-5.828,11.944l3.746,10.886a9.4,9.4,0,0,0,11.946,5.829l13.354-4.6a48.312,48.312,0,0,0,4.059,4.712L94.9-427.773a9.4,9.4,0,0,0,4,12.674l10.213,5.319a9.4,9.4,0,0,0,12.676-4L128.31-426.3a47.987,47.987,0,0,0,6.189.623l3.895,13.575a9.4,9.4,0,0,0,11.624,6.443l11.067-3.175a9.4,9.4,0,0,0,6.444-11.624l-3.893-13.575a48.418,48.418,0,0,0,6.783-5.542l12.527,6.523a9.4,9.4,0,0,0,12.676-4l5.316-10.213a9.4,9.4,0,0,0-4-12.674" transform="translate(8.802 634.562)" fill="#232f62"/>
      <path id="path262" d="M163.092-504.5a26.867,26.867,0,0,1-11.412-36.2,26.868,26.868,0,0,1,36.2-11.412,26.867,26.867,0,0,1,11.412,36.2,26.868,26.868,0,0,1-36.2,11.412ZM227.5-515.878l-10.739-5.592a41.8,41.8,0,0,0,.557-7.49l11.451-3.941a8.063,8.063,0,0,0,5-10.243l-3.213-9.334a8.06,8.06,0,0,0-10.243-5l-11.451,3.944a41.346,41.346,0,0,0-3.483-4.043l5.592-10.742a8.062,8.062,0,0,0-3.426-10.872l-8.758-4.558a8.06,8.06,0,0,0-10.869,3.428l-5.592,10.742a41.144,41.144,0,0,0-5.308-.535l-3.34-11.643a8.062,8.062,0,0,0-9.971-5.525l-9.488,2.723a8.062,8.062,0,0,0-5.525,9.971l3.34,11.641a41.7,41.7,0,0,0-5.816,4.751l-10.743-5.592A8.057,8.057,0,0,0,124.6-560.36l-4.559,8.755a8.062,8.062,0,0,0,3.427,10.872l10.742,5.592a41.581,41.581,0,0,0-.558,7.49L122.2-523.71a8.057,8.057,0,0,0-5,10.244l3.211,9.334a8.063,8.063,0,0,0,10.244,5l11.452-3.943a41.758,41.758,0,0,0,3.481,4.043L140-488.292a8.058,8.058,0,0,0,3.426,10.869l8.756,4.561a8.06,8.06,0,0,0,10.872-3.428l5.592-10.742a41.187,41.187,0,0,0,5.308.535l3.34,11.641a8.056,8.056,0,0,0,9.968,5.525l9.491-2.72a8.063,8.063,0,0,0,5.525-9.971l-3.34-11.641a41.492,41.492,0,0,0,5.815-4.754l10.742,5.594a8.06,8.06,0,0,0,10.872-3.428l4.558-8.755a8.06,8.06,0,0,0-3.428-10.872" transform="translate(61.035 587.596)" fill="#232f62"/>
      <path id="path264" d="M353.279-525.343a15.575,15.575,0,0,1-15.573,15.573,15.572,15.572,0,0,1-15.57-15.573,15.568,15.568,0,0,1,15.57-15.57,15.571,15.571,0,0,1,15.573,15.57" transform="translate(280.141 637.4)" fill="#232f62"/>
      <path id="path266" d="M389.168-525.99a4.067,4.067,0,0,1-3.6-2.37c-6.95-13.887-20.065-22.515-34.236-22.515s-27.283,8.629-34.233,22.515a3.893,3.893,0,0,1-5.627,1.772,4.969,4.969,0,0,1-1.576-6.327c8.411-16.811,24.287-27.255,41.437-27.255s33.026,10.445,41.437,27.255a4.968,4.968,0,0,1-1.574,6.327,3.757,3.757,0,0,1-2.026.6" transform="translate(266.516 616.855)" fill="#232f62"/>
      <path id="path268" d="M303.787-526.422a3.749,3.749,0,0,1-2.023-.6,4.961,4.961,0,0,1-1.574-6.325C312.669-558.3,336.234-573.8,361.684-573.8s49.021,15.5,61.5,40.453a4.959,4.959,0,0,1-1.576,6.325,3.894,3.894,0,0,1-5.625-1.772c-11.023-22.027-31.83-35.713-54.3-35.713s-43.272,13.686-54.293,35.713a4.074,4.074,0,0,1-3.6,2.37" transform="translate(256.16 602.317)" fill="#232f62"/>
      <path id="path270" d="M441.434-530.742a4.076,4.076,0,0,1-3.6-2.37c-13.947-27.875-40.274-45.19-68.708-45.19s-54.756,17.315-68.7,45.19a3.9,3.9,0,0,1-5.627,1.772,4.966,4.966,0,0,1-1.576-6.327c15.405-30.8,44.493-49.927,75.9-49.927s60.5,19.131,75.912,49.927a4.972,4.972,0,0,1-1.576,6.327,3.77,3.77,0,0,1-2.023.6" transform="translate(248.723 587.597)" fill="#232f62"/>
      <g id="g272" transform="translate(84.952 138.931)">
        <text id="text276" transform="matrix(1, 0.001, -0.001, 1, 237.091, 469.032)" fill="#fff" font-size="230" font-family="Montserrat-Bold, Montserrat" font-weight="700"><tspan x="0" y="0">BPM</tspan></text>
        <text id="text280" transform="matrix(1, 0.001, -0.001, 1, 0.023, 460.538)" fill="#fff" font-size="99" font-family="Montserrat-Bold, Montserrat" font-weight="700"><tspan x="0" y="0">&lt;/&gt;</tspan></text>
        <text id="text284" transform="matrix(1, 0.001, -0.001, 1, 211.398, 63)" fill="#fff" font-size="65" font-family="Montserrat-Bold, Montserrat" font-weight="700"><tspan x="0" y="0">$</tspan></text>
      </g>
    </g>
  </g>
</svg>
